<svg width="21" height="21" viewBox="0 0 21 21" fill="none" xmlns="http://www.w3.org/2000/svg">
<path d="M20.9911 10.4578C20.9911 11.7185 19.6439 12.3489 16.9495 12.3489C14.2115 12.3489 12.8643 13.6516 12.8643 16.2571C12.8643 18.9046 12.2124 20.2074 10.9087 20.2074C9.60488 20.2074 8.953 18.9046 8.953 16.2571C8.953 13.6516 7.60577 12.3489 4.91131 12.3489C2.1734 12.3489 0.826172 11.7185 0.826172 10.4578C0.826172 9.1971 2.1734 8.56674 4.91131 8.56674C7.60577 8.56674 8.953 7.264 8.953 4.61648C8.953 2.011 9.60488 0.708252 10.9087 0.708252C12.2124 0.708252 12.8643 2.011 12.8643 4.61648C12.8643 7.264 14.2115 8.56674 16.9495 8.56674C19.6439 8.56674 20.9911 9.1971 20.9911 10.4578Z" fill="#505050"/>
</svg>
