<svg width="1663" height="1607" viewBox="0 0 1663 1607" fill="none" xmlns="http://www.w3.org/2000/svg">
<path fill-rule="evenodd" clip-rule="evenodd" d="M1659.32 388.85C1665.68 394.618 1657 398.304 1662.96 404.463C1643.37 416.413 1664.37 420.655 1653.45 432.918C1641.77 421.968 1639.03 396.702 1659.32 388.85ZM922.776 180.581C930.83 167.921 936.053 185.975 943.945 175.071C947.898 191.172 955.94 186.509 964.753 197.063C945.402 210.379 937.646 184.419 922.776 180.581ZM870.631 258.676C864.189 257.783 858.064 257.379 851.46 258.242C849.636 254.434 856.402 251.817 853.863 247.91C860.311 244.804 865.795 248.23 870.631 258.676ZM812.845 279.998C824.802 264.324 821.895 291.918 832.015 280.433C834.953 283.951 832.563 286.286 834.468 289.216C826.501 297 819.997 284.989 812.845 279.998ZM735.49 352.379C738.428 355.897 736.038 358.232 737.943 361.162C728.868 365.237 728.14 373.135 718.361 369.114C716.793 354.677 727.598 363.284 735.49 352.379ZM608.834 464.144C602.535 473.492 600.463 476.315 592.11 476.491C591.002 472.782 592.757 469.471 591.649 465.762C597.842 473.286 600.662 450.569 608.834 464.144ZM577.645 468.265L585.213 460.871C592.52 468.105 581.765 478.612 577.645 468.265ZM580.758 564.239C581.249 554.975 597.09 548.282 598.696 538.728C604.086 551.029 585.221 559.08 580.758 564.239ZM538.884 739.3C537.24 721.741 554.824 719.734 563.12 704.442C560.182 700.924 556.442 702.183 552.377 706.952C551.68 694.857 563.214 695.567 571.094 692.659C571.791 704.754 563.899 715.659 562.766 727.945C553.616 728.899 551.556 723.725 538.884 739.3ZM509.996 694.858C502.838 693.866 501.014 690.059 490.819 698.422C490.595 689.059 501.089 693.179 502.378 683.137C508.82 684.03 504.04 688.7 509.996 694.858ZM478.969 748.329C468.07 748.596 461.423 777.448 447.835 767.567C453.904 752.854 471.232 761.477 465.773 742.056C470.305 744.017 475.483 738.958 478.969 748.329ZM432.026 805.37C422.553 809.835 427.818 799.899 424.407 793.65L439.545 778.861C444.3 790.185 423.617 790.429 432.026 805.37ZM380.837 778.724C383.003 767.026 402.435 752.832 411.516 744.759C406.406 756.938 387.13 773.375 380.837 778.724ZM359.675 780.236C356.581 774.475 367.007 771.475 369.64 766.508C376.947 773.742 362.538 780.633 359.675 780.236ZM543.395 1114.98C541.335 1109.81 537.526 1103.95 542.941 1100.26C549.059 1104.66 551.68 1107.69 543.395 1114.98ZM403.185 937.355C416.635 932.998 409.01 925.275 422.305 918.674C423.084 929.891 412.658 932.891 405.637 946.138C405.481 943.895 405.407 940.774 403.185 937.355ZM510.929 1070.05C517.533 1069.18 512.348 1078.24 517.365 1074.94C520.458 1080.7 510.033 1083.7 507.4 1088.67C507.25 1082.42 505.352 1075.49 510.929 1070.05ZM680.632 1364.19L690.192 1354.85C692.091 1361.78 686.819 1375.71 680.632 1364.19ZM505.659 1186.19C502.795 1185.79 500.175 1182.76 497.635 1178.86C504.563 1174.48 500.673 1169.5 507.6 1165.13C503.691 1172.14 512.032 1179.96 505.659 1186.19ZM383.866 1032.89C391.111 1029 386.903 1023.53 393.831 1019.16C392.225 1028.71 408.383 1022.51 397.466 1034.77C385.627 1025.58 383.611 1043.52 371.909 1048.56C379.073 1045.55 360.867 1038.59 363.158 1049.13C360.78 1043.46 357.998 1042.19 354.73 1046.18C362.305 1034.79 373.695 1025.26 383.866 1032.89ZM510.881 1204.24C513.974 1210 503.549 1213 500.916 1217.97C493.21 1211.13 499.821 1206.27 498.875 1200.8C507.638 1192.24 503.866 1213.49 510.881 1204.24ZM353.796 981.615L358.24 988.452C352.576 998.777 349.177 984.53 343.514 994.855C340.737 989.582 351.561 986.194 353.796 981.615ZM462.555 1177.99L472.116 1168.65C471.07 1176.06 470.342 1183.96 468.182 1191.66C462.861 1186.48 467.162 1183.08 462.555 1177.99ZM348.375 1040.41C348.942 1034.27 351.026 1023.45 356.753 1024.24C364.378 1031.96 353.703 1041.59 348.375 1040.41ZM656.651 1490.63L662.683 1499.91C655.836 1503.4 660.125 1507.99 654.71 1511.69C648.517 1504.16 645.722 1510.89 641.975 1516.14C640.469 1512.83 638.72 1512.14 636.809 1513.21C635.558 1499.26 653.608 1503.98 656.651 1490.63ZM443.024 1205.06C436.488 1213.04 424.669 1242.96 410.758 1236.58C424.93 1228.33 428.135 1213.22 443.024 1205.06ZM314.017 1035.65C313.071 1030.19 312.206 1023.85 319.133 1019.47L323.578 1026.31L314.017 1035.65ZM242.94 906.262C238.322 909.178 237.282 912.589 240.538 916.595C237.513 917.953 234.812 915.801 231.787 917.16C230.921 910.818 235.004 894.053 242.94 906.262ZM620.402 1526.04C615.143 1531.98 608.395 1522.6 608.8 1518.21C616.605 1512.19 623.85 1508.3 630.373 1508.32C630.28 1517.19 613.424 1511.3 620.402 1526.04ZM469.559 1278.95C466.292 1282.94 463.671 1279.91 460.403 1283.9C457.465 1280.39 459.856 1278.05 457.951 1275.12L461.934 1271.23C463.677 1275.91 467.101 1274.17 469.559 1278.95ZM354.931 1122.64C351.426 1125.27 348.009 1123.02 344.916 1117.25L350.492 1111.81C354.862 1115.52 353.505 1118.44 354.931 1122.64ZM417.567 1257.08C415.638 1270.15 417.96 1260.69 424.732 1254.07C429.014 1262.67 419.379 1268.89 414.039 1275.7C412.451 1273.26 410.379 1276.08 408.468 1277.15C408.48 1269.15 406.563 1274.22 402.436 1267.87C417.779 1274.44 407.223 1259.2 417.567 1257.08ZM282.884 1054.89C287.645 1062.21 274.742 1072.42 272.912 1072.62C268.549 1064.9 278.589 1054.29 282.884 1054.89ZM346.734 1176.16C340.696 1170.88 345.713 1167.58 341.107 1162.5C344.132 1161.14 346.51 1166.8 349.13 1169.83L353.113 1165.94C354.141 1170.53 349.522 1173.44 346.734 1176.16ZM336.719 1170.78C344.107 1177.13 331.373 1181.59 328.341 1186.95L323.897 1180.11C324.389 1170.85 331.379 1177.59 336.719 1170.78ZM402.637 1344.33C407.435 1327.67 389.211 1332.7 401.404 1318.39C403.689 1332.92 410.323 1312.07 412.956 1307.1C415.309 1328.76 416.821 1328.08 402.637 1344.33ZM161.341 997.163C153.779 1000.56 156.96 1001.44 149.789 1008.45C145.189 999.369 155.297 995.882 144.567 990.395C148.388 988.259 146.882 984.939 145.376 981.62L154.936 972.279C154.053 977.934 154.6 983.787 149.82 988.457C152.123 990.998 154.675 986.908 156.984 985.45C156.978 989.449 158.802 993.256 161.341 997.163ZM379.476 1351.79C383.621 1346.14 386.317 1352.29 390.624 1344.89C395.149 1350.85 390.449 1354.64 387.499 1359.12C385.912 1356.68 383.839 1359.5 381.928 1360.57C381.854 1357.45 381.381 1354.72 379.476 1351.79ZM484.545 1517.44C485.721 1528.27 476.254 1528.73 468.598 1541C461.533 1531.14 479.839 1525.23 484.545 1517.44ZM371.958 1378.3C365.435 1378.28 358.582 1385.78 352.787 1377.86C355.339 1373.77 357.642 1376.32 359.945 1378.86C362.26 1373.4 364.575 1367.94 368.322 1362.69C373.962 1368.36 365.603 1372.53 371.958 1378.3ZM259.825 1253.89C263.815 1246 269.884 1231.28 275.772 1230.32C285.544 1238.34 262.47 1240.92 272.243 1248.94C267.537 1256.73 264.531 1246.1 259.825 1253.89ZM203.625 1124.34C211.013 1130.7 198.278 1135.15 195.247 1140.51C194.699 1134.66 198.129 1128.91 203.625 1124.34ZM314.794 1357.49C314.177 1344.52 330.255 1339.19 339.491 1333.36C342.728 1349.36 324.105 1354.78 314.794 1357.49ZM357.686 1399.43C355.239 1386.65 367.402 1392.33 370.831 1386.59C372.73 1393.51 372.879 1399.76 367.302 1405.21C368.267 1398.67 363.026 1392.61 357.686 1399.43ZM313.511 1312.43C314.787 1310.39 316.137 1311.46 317.09 1312.93C317.961 1315.27 319.474 1314.59 320.669 1313.42C319.069 1318.98 321.447 1324.64 322.711 1330.59C308.214 1342.36 304.567 1334.74 292.386 1341.05C289.317 1319.3 314.519 1329.01 313.511 1312.43ZM396.234 1472.76L405.794 1463.42C413.344 1468.02 397.808 1483.2 396.234 1472.76ZM257.827 1259.83C256.944 1265.49 257.492 1271.34 252.711 1276.01C251.205 1272.69 249.456 1272 247.545 1273.07C244.769 1267.8 254.877 1264.31 257.827 1259.83ZM304.251 1436.46C303.715 1422.61 328.967 1400.34 337.326 1396.16C340.812 1405.53 322.986 1410.17 332.21 1412.34C330.374 1416.53 313.02 1423.9 304.251 1436.46ZM170.493 1149.52C175.18 1153.73 180.266 1157.54 174.129 1165.13C174.614 1159.87 172.386 1160.45 169.684 1158.3C166.255 1164.04 174.297 1159.38 172.137 1167.08C161.861 1176.32 164.188 1162.87 154.553 1169.09C153.451 1161.38 166.267 1156.05 170.493 1149.52ZM287.326 1372.35C284.301 1373.71 280.006 1373.11 282.16 1369.41C280.572 1366.97 278.5 1369.79 276.589 1370.86L273.414 1365.98C275.325 1364.91 274.771 1363.05 273.819 1361.59C279.234 1357.9 283.199 1366 287.326 1372.35ZM274.187 1381.19C269.556 1392.11 267.795 1399.42 258.241 1404.76C251.419 1392.26 267.178 1386.44 274.187 1381.19ZM95.6953 1111.61C97.5191 1115.41 90.7536 1118.03 93.2931 1121.94C89.1602 1119.59 85.096 1124.36 81.685 1118.11C82.2575 1107.97 90.7657 1110.03 95.6953 1111.61ZM208.439 1304.09C209.08 1301.07 210.038 1298.54 212.428 1296.2C215.292 1296.6 217.912 1299.63 220.451 1303.53C216.306 1309.18 211.85 1310.34 208.439 1304.09ZM288.715 1451.64C282.124 1444.51 290.091 1436.72 295.101 1437.42C298.593 1442.79 293.813 1447.46 288.715 1451.64ZM128.667 1190.39C138.85 1190.02 130.634 1204.43 125.138 1209.01L119.106 1199.73C121.341 1195.15 131.518 1198.78 128.667 1190.39ZM166.455 1291.61L176.016 1282.27C181.494 1289.69 171.211 1302.93 166.455 1291.61ZM244.64 1402.87C234.227 1397.88 223.385 1413.26 220.347 1422.61C223.061 1416.77 212.884 1413.14 215.181 1419.68C206.274 1418 212.729 1410.89 219.576 1407.4C216.887 1397.25 212.33 1411.28 209.561 1402.01C220.876 1389.36 232.254 1387.83 244.64 1402.87ZM329.412 1576.37C338.25 1570.93 336.102 1570.64 344.549 1561.59C345.887 1570.66 339.918 1572.5 337.434 1583.71C334.571 1583.31 332.269 1580.77 329.412 1576.37ZM126.42 1254.07C128.163 1258.75 130.871 1256.9 133.578 1255.06C132.215 1261.98 127.273 1268.4 121.616 1274.73C115.821 1266.82 120.445 1259.9 126.42 1254.07ZM417.922 1697.51C410.279 1701.79 405.81 1710.94 395.223 1715.7C394.115 1711.99 394.438 1708.48 397.625 1705.37C392.782 1698.92 386.801 1708.75 381.305 1713.33C376.867 1702.49 390.778 1708.86 377.265 1702.1C395.988 1683.81 402.648 1698.06 417.922 1697.51ZM164.67 1366.02C162.361 1367.48 160.618 1362.79 157.513 1365.03C153.149 1357.31 164.533 1351.78 169.475 1345.35C177.013 1357.95 152.44 1353.21 164.67 1366.02ZM152.962 1323.96L157.406 1330.79C148.568 1336.23 141.721 1339.73 152.29 1346.97C146.24 1349.69 141.242 1341 134.706 1348.98C131.706 1334.34 143.24 1335.05 152.962 1323.96ZM140.227 1328.41C133.381 1331.91 137.669 1336.5 132.254 1340.2C132.191 1329.08 124.386 1335.11 121.511 1342.71C118.585 1331.19 130.766 1324.88 137.457 1319.14C137.532 1322.26 138.005 1324.99 140.227 1328.41ZM209.25 1448.63C202.882 1450.86 181.49 1447 184.963 1464.37C178.365 1461.24 173.043 1456.05 168.966 1468.82C166.744 1465.4 164.921 1461.59 162.53 1463.93C166.682 1454.28 180.935 1445.15 189.624 1433.47C196.378 1438.85 203.629 1430.96 210.383 1436.34C213.24 1440.74 204.961 1444.03 209.25 1448.63ZM371.44 1765.28C383.777 1761.22 392.41 1734.42 406.159 1742.54C394.769 1752.07 382.333 1769.02 371.44 1765.28ZM130.817 1395.1C128.109 1396.95 125.651 1392.16 127.642 1390.22C111.403 1397.3 130.549 1362.62 140.378 1385.76C137.502 1393.36 127.723 1389.34 130.817 1395.1ZM132.1 1440.16C133.624 1431.48 144.374 1424.97 148.046 1416.6C152.64 1429.67 141.648 1438.82 132.1 1440.16ZM222.291 1554.87C224.283 1552.92 221.98 1550.38 221.109 1548.04C235.655 1555.38 225.03 1584.13 209.202 1582.83C205.473 1576.09 208.106 1571.12 200.774 1579.88C193.797 1565.14 210.141 1541.18 222.291 1554.87ZM343.008 1735.57C345.466 1740.35 348.572 1738.12 351.031 1742.9C342.902 1752.44 325.698 1766.06 335.084 1766.47C336.902 1774.27 325.611 1770.93 323.072 1767.02C325.244 1751.33 328.194 1746.85 343.008 1735.57ZM96.0042 1375.61C82.8834 1372.46 72.9746 1401.31 57.3019 1402.24C62.1691 1392.7 76.7464 1380.05 89.9728 1366.33L96.0042 1375.61ZM-58.2671 1185.37C-48.8747 1181.78 -50.151 1183.83 -41.543 1173.02C-37.3352 1178.49 -54.551 1200.1 -58.2671 1185.37ZM185.941 1552.05L195.502 1542.71C203.052 1547.31 187.915 1562.1 185.941 1552.05ZM342.759 1793.31C344.67 1792.24 344.116 1790.38 343.164 1788.92C352.475 1786.21 343.388 1798.28 338.77 1801.2C334.799 1797.09 335.838 1793.68 334.73 1789.97C337.755 1788.61 340.22 1789.4 342.759 1793.31ZM303.496 1770.98C307.716 1768.45 311.451 1771.19 316.231 1766.52C319.319 1776.28 315.186 1773.93 323.445 1782.63C319.543 1785.64 321.366 1789.45 317.464 1792.47C312.858 1787.38 317.874 1784.08 311.837 1778.8C302.189 1793.02 293.836 1793.19 287.139 1802.93C279.128 1787.6 309.129 1780.65 303.496 1770.98ZM49.4662 1428.27C64.1866 1425.86 62.1386 1412.69 77.7427 1404.63C79.0626 1425.7 61.4043 1424.59 57.0849 1439.99L49.4662 1428.27ZM331.929 1800.69C331.519 1809.08 325.145 1815.31 318.379 1817.92C314.427 1801.82 326.913 1804 331.929 1800.69ZM60.3092 1463.99C72.4029 1462.55 59.4505 1453.65 70.2806 1446.26C74.0838 1456.12 75.758 1453.68 75.503 1464.31C70.1688 1467.13 64.6725 1471.7 60.3092 1463.99ZM91.2446 1521.6C92.4335 1524.43 88.6117 1526.57 90.4355 1530.37C96.9524 1534.39 100.395 1520.64 103.581 1517.53C103.158 1533.91 110.285 1503.79 117.181 1519.41C103.799 1530.89 96.5796 1569.89 80.9816 1573.95C86.4028 1566.25 86.098 1557.77 76.4875 1547.99C79.8361 1543.12 82.6182 1544.4 85.6432 1543.04C86.9315 1533 79.9977 1541.37 76.0327 1533.27C82.2507 1524.8 86.5453 1525.39 91.2446 1521.6ZM306.049 1817.99C311.682 1827.66 302.445 1833.49 312.859 1838.49C299.309 1855.72 290.127 1825.56 306.049 1817.99ZM218.814 1745.91C215.702 1752.15 220.545 1758.6 215.286 1764.53C226.253 1771.38 227.131 1769.73 236.1 1782.53C231.239 1788.07 228.475 1774.8 224.087 1783.08C221.934 1786.78 226.789 1785.23 228.532 1789.92C225.743 1792.64 222.637 1794.88 224.542 1797.81C216.986 1797.21 215.342 1779.65 221.317 1773.81C210.898 1772.81 211.458 1770.67 203.677 1760.7C216.344 1749.13 217.569 1727.96 239.522 1729.67C238.633 1739.33 221.279 1746.7 230.012 1758.13L226.029 1762.02C225.157 1759.68 223.645 1760.36 222.45 1761.53C216.095 1755.76 226.601 1751.88 221.995 1746.8C221.118 1748.45 219.767 1747.38 218.814 1745.91ZM263.718 1825.01C265.473 1821.7 261.502 1817.6 259.678 1813.79L267.247 1806.39C270.502 1810.4 268.031 1813.61 271.286 1817.62C278.93 1813.35 267.327 1805.52 276.402 1801.44C276.222 1815.19 288.807 1804.49 294.042 1814.55C287.992 1817.27 282.023 1819.11 276.453 1820.56C279.459 1831.19 258.776 1831.44 254.929 1849.57C252.471 1844.79 249.365 1847.02 246.906 1842.24C252.085 1837.18 257.027 1830.75 261.639 1831.84C265.068 1826.09 256.709 1830.26 259.186 1823.05C260.543 1820.13 262.05 1823.45 263.718 1825.01ZM294.951 1844.01C296.29 1853.08 285.223 1859.1 275.42 1871.07C275.918 1857.81 291.665 1859.99 282.534 1848.95C287.482 1838.53 290.246 1851.8 294.951 1844.01ZM11.8966 1442.61C18.8242 1438.24 19.546 1434.34 23.0441 1435.71C27.8058 1443.04 20.0816 1448.19 15.9363 1453.84C13.0793 1449.44 15.5503 1446.23 11.8966 1442.61ZM-121.928 1250.76C-123.907 1244.71 -112.685 1240.93 -120.391 1234.09C-117.049 1233.22 -113.632 1235.47 -110.376 1239.47C-111.104 1247.37 -116.426 1242.19 -121.928 1250.76ZM1.70821 1498.08C-0.594825 1495.54 4.51519 1483.36 -2.33146 1486.86C-2.55567 1477.49 11.1252 1478.5 16.3846 1472.56C23.5241 1485.55 5.62322 1487.07 10.858 1497.13C7.43467 1498.87 4.81409 1495.85 1.70821 1498.08ZM197.241 1755.81C201.443 1765.28 204.213 1774.55 212.479 1779.25C201.169 1787.91 178.134 1817.6 155.521 1830.91C161.925 1804.69 176.167 1803.55 194.895 1781.26C199.202 1773.86 188.291 1782.12 186.872 1773.93C189.667 1767.2 189.517 1760.96 197.241 1755.81ZM201.381 1805.27C200.672 1801.17 202.508 1796.98 205.775 1792.99C208.944 1801.87 214.054 1789.69 217.378 1800.82C214.67 1802.66 214.508 1804.42 214.981 1807.15C212.274 1809 209.815 1804.21 211.807 1802.27C208.869 1798.75 204.798 1807.52 201.381 1805.27ZM46.5049 1542.95C52.0632 1549.5 47.2832 1554.17 41.3889 1559.13C36.5463 1552.68 41.3263 1548.01 46.5049 1542.95ZM-6.77571 1480.02C-6.06611 1484.12 -7.9022 1488.31 -11.1699 1492.3C-14.8236 1488.68 -19.6039 1493.35 -22.7722 1484.47C-16.9526 1476.39 -12.9128 1487.61 -6.77571 1480.02ZM194.223 1804.27C199.135 1817.84 193.807 1816.66 183.53 1825.9C179.565 1817.8 189.201 1811.58 194.223 1804.27ZM125.755 1737.02C130.038 1745.61 118.815 1749.39 114.197 1752.3C109.753 1745.46 121.461 1736.42 125.755 1737.02ZM178.528 1923.42C175.913 1916.39 184.92 1905.19 188.498 1905.69C188.25 1912.32 182.673 1917.77 178.528 1923.42ZM196.996 1966.86C193.902 1961.1 194.313 1952.71 187.385 1957.08C185.879 1953.76 190.896 1950.46 193.367 1947.25C192.078 1957.29 207.67 1957.23 196.996 1966.86ZM183.395 1964.97C187.921 1970.93 189.265 1976.01 183.85 1979.7C179.325 1973.74 175.435 1968.76 183.395 1964.97ZM291.748 1548.49C291.984 1549.86 291.904 1550.74 292.14 1552.1C291.188 1550.64 290.951 1549.27 291.748 1548.49ZM1345.54 1032.38C1323.56 1050.67 1314.94 1065.47 1288.99 1079.65C1284.38 1078.57 1282.79 1076.13 1282.96 1070.37C1276.34 1079.23 1270.78 1076.68 1265.37 1076.38C1252.42 1118.58 1220.19 1126.11 1198.9 1156.49C1198.99 1151.61 1197.64 1146.54 1198.44 1141.76C1166.31 1140.42 1168.05 1196.21 1141.48 1197.41C1141.16 1200.92 1141.55 1204.53 1141.94 1208.14C1139.4 1208.24 1137.17 1208.82 1134.78 1211.15C1126.76 1199.82 1132.98 1191.35 1134.27 1181.31C1122.62 1201.47 1093.01 1212.03 1094.48 1239.34L1082.93 1250.63C1075.62 1243.39 1086.93 1238.74 1082.88 1231.51C1078.6 1222.92 1070.15 1235.97 1071.28 1223.68C1053.14 1223.84 1069.62 1269.22 1047.76 1254.64C1038.37 1258.23 1054.35 1265.77 1044.64 1268.87C1032.87 1266.8 1047.6 1256.4 1037.83 1248.38C1026.76 1254.4 1010.14 1253.87 1015.12 1270.56C1012.81 1272.02 1012.34 1269.29 1013.54 1268.12C1010.44 1262.36 1007.42 1259.72 1003.52 1262.73C1001.38 1258.43 1003.22 1254.25 1007.92 1250.45C991.11 1263.68 962.466 1267.71 956.074 1285.93C950.516 1279.38 942.53 1299.16 940.482 1285.99C939.586 1299.64 922.413 1293.26 928.924 1301.28C907.998 1304.15 888.074 1327.61 879.939 1341.15C876.435 1343.77 873.018 1341.52 869.924 1335.76C861.08 1345.2 875.395 1347.18 865.991 1358.77C861.864 1352.42 859.629 1357 859.959 1349.49C846.814 1362.33 841.722 1362.52 826.106 1378.57C823.168 1375.05 825.558 1372.72 823.653 1369.79C817.921 1372.99 817.516 1377.38 822.521 1382.07C813.209 1384.78 817.124 1373.77 809.331 1371.8C807.576 1375.12 811.547 1379.22 813.371 1383.03C810.825 1383.12 807.881 1383.6 809.388 1386.92C805.006 1391.2 794.437 1383.96 803.406 1396.76C799.504 1399.77 797.132 1390.11 793.385 1395.37C789.495 1390.38 797.375 1387.48 794.518 1383.08C790.864 1379.46 787.422 1393.21 788.132 1397.31C753.357 1404.93 749.125 1466.56 715.582 1449.02C724.589 1437.83 734.211 1439.61 738.288 1426.84C734.628 1427.22 721.974 1430.8 723.555 1437.24C715.912 1441.51 718.47 1433.42 717.524 1427.96C712.881 1446.87 703.513 1434.46 697.993 1455.03C692.833 1448.09 681.206 1456.26 681.623 1443.87C677.241 1448.15 678.585 1453.23 671.658 1457.6C684.772 1464.75 670.127 1470.28 668.129 1476.22C672.579 1479.06 677.602 1471.76 681.324 1482.49C674.166 1481.5 677.658 1486.87 681.785 1493.22L672.225 1502.56C661.419 1493.95 663.411 1492.01 654.591 1485.45C654.846 1474.82 666.772 1479.14 664.562 1467.73C656.134 1464.78 651.342 1477.45 646.251 1477.63C648.224 1487.68 640.568 1499.95 625.997 1508.6C622.026 1504.49 625.929 1501.48 628.4 1498.27C618.54 1495.12 613.02 1515.69 600.528 1517.51C618.902 1518.72 586.025 1533.28 591.422 1541.58C584.974 1544.69 578.693 1542.04 572.245 1545.14C570.172 1547.97 573.428 1551.97 575.419 1550.03C576.446 1554.61 563.158 1557.22 560.232 1545.7C588.416 1530.94 623.569 1483.82 651.043 1464.96C652.717 1462.53 649.381 1459.4 651.852 1456.19C646.213 1450.52 649.456 1462.52 644.283 1463.58C642.858 1459.39 643.262 1455 642.235 1450.41C638.165 1459.18 628.051 1466.67 627.559 1475.93C622.623 1478.36 621.354 1476.4 621.123 1471.04C622.468 1476.11 611.961 1479.99 614.737 1485.26C611.314 1487.01 613.629 1481.55 610.293 1478.43C602.413 1481.33 606.994 1502.41 597.147 1491.27C589.261 1498.18 597.839 1507.36 590.034 1513.39C583.591 1512.5 577.386 1512.97 570.452 1521.34C567.757 1515.19 564.34 1512.94 560.842 1511.57C558.757 1522.39 545.872 1520.6 546.887 1533.19C545.213 1535.62 536.237 1526.82 539.723 1536.19C535.665 1536.96 537.899 1532.39 531.7 1528.86C523.26 1533.91 524.442 1540.74 518.15 1546.09C528.507 1535.97 535.335 1544.47 548.468 1539.63C551.163 1545.78 539.219 1553.45 537.725 1542.14C539.779 1551.31 518.224 1549.21 525.762 1561.81C521.617 1567.46 518.922 1561.31 514.615 1568.71C514.702 1563.83 517.335 1558.87 510.98 1553.1C509.623 1556.02 508.739 1561.67 512.162 1559.93C513.743 1566.37 495.842 1567.89 496.62 1579.1C499.241 1582.13 502.67 1576.39 505.776 1574.15C524.742 1604.33 542.717 1554.83 556.859 1566.56C531.365 1591.47 511.447 1610.93 488.343 1633.5L483.899 1626.67C485 1634.37 486.42 1642.57 476.785 1648.79C474.973 1636.98 466.944 1633.65 459.145 1635.68C462.954 1641.54 467.641 1645.74 472.334 1645.95C472.963 1650.93 468.581 1655.21 465.948 1660.17C463.253 1654.02 459.836 1651.77 456.338 1650.4C455.454 1656.05 453.462 1658 448.769 1657.79C445.502 1661.78 452.653 1666.78 450.817 1670.96C446.759 1671.74 443.267 1666.36 439.215 1663.14C434.117 1667.32 429.736 1671.6 432.829 1677.36C435.767 1680.88 437.697 1667.81 442.851 1678.75C431.784 1684.77 431.217 1690.91 420.151 1696.93C419.043 1693.22 419.366 1689.71 422.553 1686.6C420.02 1678.7 415.794 1685.22 412.538 1681.21C410.547 1683.16 412.85 1685.7 413.721 1688.04C408.785 1690.47 404.415 1686.75 400.525 1681.77C414.679 1685.51 416.073 1658.6 424.818 1662.03C429.119 1658.63 420.218 1652.95 419.191 1648.36C407.963 1656.14 407.229 1668.04 398.484 1664.6C396.411 1667.42 399.747 1670.55 400.936 1673.38C394.556 1683.61 377.147 1675.87 385.394 1692.56C376.325 1692.64 362.47 1701.38 357.522 1711.81C353.227 1711.21 354.186 1708.68 353.078 1704.97C352.194 1710.62 347.015 1715.68 347.962 1721.15C342.627 1723.96 347.812 1714.91 341.526 1716.26C343.319 1740.06 321.036 1745.86 305.731 1766.4L300.334 1758.1C301.99 1767.66 286.249 1761.48 293.948 1772.32C287.83 1767.92 283.672 1781.56 282.34 1768.49C257.393 1799.25 250.921 1818.35 232.136 1825.53C230.86 1827.57 233.624 1840.84 236.176 1836.75C236.562 1844.36 221.667 1856.51 217.459 1851.04C212.996 1856.2 222.787 1852.23 223.491 1860.32C192.768 1871.17 167.684 1887.7 147.761 1911.15C141.232 1915.14 146.578 1904.32 141.729 1901.87C129.219 1915.69 137.964 1919.13 126.648 1931.78C115.786 1908.06 152.547 1902.48 143.273 1881.2C153.779 1877.33 157.196 1879.58 164.846 1871.3C166.918 1868.48 163.582 1865.35 162.393 1862.52C209.797 1816.21 237.103 1803.11 280.298 1751.32C286.336 1756.6 292.541 1756.13 299.064 1756.14C302.973 1749.13 290.481 1750.96 293.437 1742.48C301.79 1742.3 300.583 1751.47 306.627 1752.75C306.322 1744.26 313.89 1736.87 308.973 1727.3C316.616 1723.03 314.058 1731.11 315.005 1736.58C317.7 1742.73 321.87 1721.09 328.144 1727.73C330.216 1724.91 326.88 1721.78 325.691 1718.95C335.488 1710.98 336.683 1709.81 347.265 1709.05C348.939 1706.62 345.285 1703 348.073 1700.28C344.818 1696.27 340.748 1705.04 337.33 1702.79C337.586 1692.16 349.511 1696.48 350.881 1685.56C350.557 1689.07 349.517 1692.48 348.478 1695.89C365.981 1694.76 360.285 1673.97 371.993 1664.93C368.819 1660.05 364.91 1667.06 361.978 1659.54C364.524 1659.45 369.379 1657.9 367.555 1654.09C372.652 1649.91 373.032 1661.52 373.586 1663.37L383.147 1654.03C376.785 1652.26 372.571 1650.79 375.528 1642.31C372.746 1641.04 369.559 1644.15 367.1 1639.37C362.221 1656.91 337.162 1657.44 333.651 1664.06C336.515 1664.46 339.458 1663.98 342.403 1663.5C344.226 1667.3 338.892 1670.12 336.421 1673.33C340.791 1677.05 344.855 1672.28 344.445 1680.67C338.22 1693.13 336.801 1684.94 327.72 1693.01C324.95 1683.74 324.39 1685.89 318.11 1683.24C312.769 1690.05 326.357 1699.93 314.176 1706.25C307.821 1700.48 316.498 1696.79 310.541 1690.63C302.02 1696.56 310.678 1704.87 315.757 1712.69C305.661 1708.18 300.371 1734.11 289.018 1719.65C290.151 1707.36 298.174 1714.69 303.744 1713.24C305.263 1708.56 310.043 1703.89 303.29 1698.52C298.597 1698.31 294.302 1697.71 289.69 1696.63C287.294 1702.96 291.738 1709.8 286.161 1715.25C279.719 1714.36 280.049 1706.85 276.955 1701.09C268.191 1709.65 250.122 1716.92 234.674 1727.22C232.458 1719.81 232.389 1712.69 240.194 1706.66L244.639 1713.5C245.124 1708.23 249.201 1695.46 250.216 1708.05C274.266 1690.94 278.853 1656.91 309.576 1646.06C312.987 1652.31 303.519 1652.78 302.007 1653.45C304.939 1660.97 308.848 1653.96 312.028 1654.84C304.814 1638.73 327.352 1622.31 338.667 1609.65C342.004 1612.78 339.931 1615.6 337.858 1618.43C347.008 1617.47 346.547 1606.75 351.408 1601.2C354.751 1600.33 358.168 1602.58 361.423 1606.58C378.154 1590.24 386.606 1577.19 407.233 1561.83C402.976 1588.35 374.475 1602.62 359.83 1608.14C373.405 1626.02 338.307 1637.15 337.174 1649.44C354.689 1640.31 365.6 1632.05 378.59 1616.96C384.385 1624.88 389.943 1631.42 393.367 1629.67C401.066 1640.52 382.773 1638.43 384.989 1645.85C389.122 1648.2 394.456 1645.38 399.716 1639.44C403.382 1635.06 399.572 1629.2 399.261 1624.71C406.985 1619.56 414.548 1616.17 418.382 1606.03C420.05 1607.6 419.172 1609.25 417.977 1610.42C414.068 1617.43 427.444 1609.96 424.009 1619.7L431.577 1612.31C429.038 1608.4 426.66 1602.74 423.554 1604.97C422.216 1595.9 433.139 1579.64 440.683 1588.24C446.26 1582.79 444.361 1575.86 444.212 1569.62C441.429 1568.34 438.243 1571.46 435.784 1566.67C436.512 1558.78 445.749 1552.95 449.789 1564.17C485.615 1545.14 499.508 1512.4 533.031 1490.83C536.834 1500.69 528.406 1497.74 523.066 1504.56C537.675 1523.02 534.152 1486.54 544.64 1494.66C549.264 1487.74 539.474 1491.72 538.608 1485.38C543.083 1472.22 551.741 1480.53 555.737 1468.64C564.949 1478.81 555.712 1484.64 548.629 1486.77C559.428 1499.37 577.379 1465.87 563.362 1476.37C573.887 1460.49 591.234 1457.12 598.024 1438.51C601.049 1437.15 603.912 1437.55 606.452 1441.45C613.38 1437.08 609.57 1431.22 616.012 1432.11C617.774 1424.8 611.008 1427.42 610.385 1418.45C605.686 1422.24 603.533 1425.94 605.991 1430.73C596.201 1434.7 611.437 1407.04 600.364 1417.06C603.731 1400.19 618.757 1406.28 623.07 1394.88C628.467 1403.18 645.59 1390.44 629.102 1404.15C634.112 1404.85 637.921 1410.71 629.562 1414.88C639.185 1416.66 641.027 1408.47 644.7 1400.09C648.833 1402.44 655.119 1401.09 654.31 1409.87C659.339 1398.57 669.379 1387.96 672.976 1376.46C688.394 1386.15 693.927 1357.59 695.682 1354.28C711.715 1325.84 734.701 1328.13 743.894 1299.19C748.363 1290.03 773.572 1295.75 766.6 1277.01C762.548 1273.78 755.117 1295.41 754.587 1277.56C749.969 1280.48 753.224 1284.48 755.048 1288.29C745.425 1286.51 743.272 1290.21 735.467 1296.24C733.313 1299.94 738.168 1298.4 739.911 1303.08C735.448 1308.24 731.396 1305.01 727.176 1307.54C725.022 1311.24 729.877 1309.69 731.62 1314.37C728.272 1319.24 725.49 1317.97 722.465 1319.33C728.533 1304.61 710.62 1314.13 716.888 1324.78C702.715 1333.03 683.221 1336.11 681.043 1355.8C665.127 1359.38 652.069 1367.34 638.033 1389.84C636.527 1386.52 634.778 1385.83 632.867 1386.9C629.294 1382.41 629.699 1378.02 633.999 1374.62C630.669 1367.49 624.514 1387.08 621.987 1375.17C624.682 1381.32 615.209 1385.79 620.45 1391.85C615.757 1391.64 610.354 1387.34 610.839 1382.07C605.897 1388.5 603.818 1395.32 602.138 1401.75C595.845 1407.1 590.443 1402.8 584.555 1403.76C584.231 1407.27 580.328 1410.28 582.152 1414.09C579.127 1415.45 576.264 1415.05 573.725 1411.15C567.98 1422.35 559.95 1419.01 564.619 1435.21C555.469 1436.17 556.819 1437.24 553.066 1446.5C551.012 1437.33 534.773 1444.41 543.86 1432.34C542.192 1430.77 526.34 1445.46 531.898 1452.01C523.869 1448.68 522.125 1443.99 515.901 1456.46C504.542 1446 507.007 1446.78 498.318 1458.47C498.094 1449.1 486.081 1449.66 480.678 1445.36C476.857 1447.49 486.392 1454.15 488.701 1452.69C490.127 1456.89 484.245 1453.85 486.305 1459.02C477.796 1456.96 469.207 1455.77 461.103 1449.31C460.779 1452.82 458.308 1456.03 455.121 1459.15C455.849 1451.25 457.437 1453.69 451.082 1447.92C461.115 1441.31 466.755 1446.98 473.377 1434.12C478.606 1448.18 494.079 1421.88 494.135 1437C504.884 1430.49 490.898 1421 494.489 1413.5C506.278 1403.58 518.926 1404 526.345 1390.36C521.739 1385.28 516.087 1387.61 511.562 1381.65C525.455 1400.01 477.161 1404.87 486.51 1429.28C476.638 1434.13 482.862 1421.66 480.883 1415.61C480.559 1419.12 478.088 1422.33 474.901 1425.45C473.314 1423.01 476.022 1421.16 477.298 1419.11C474.839 1414.33 471.733 1416.57 469.275 1411.78C465.372 1414.8 467.196 1418.6 463.293 1421.62C466.156 1422.01 468.615 1426.8 471.721 1424.56C475.848 1430.91 463.051 1424.25 470.912 1433.34C462.646 1428.64 458.258 1436.92 453.322 1439.34C450.229 1433.58 455.009 1428.91 459.303 1429.51C455.015 1424.91 449.837 1429.97 445.704 1427.62C443.631 1430.45 446.968 1433.58 448.156 1436.41C429.938 1437.44 430.305 1457.04 411.85 1456.71C400.534 1418.25 376.657 1425.61 362.305 1447.62C360.63 1450.05 364.284 1453.67 361.496 1456.39C364.676 1457.28 367.228 1453.19 374.635 1447.55C387.264 1459.96 384.756 1436.06 395.45 1465.54C386.872 1456.35 377.156 1463.45 367.527 1465.67C366.009 1470.35 370.148 1468.7 371.567 1476.9C375.14 1481.39 379.92 1476.72 383.58 1476.34C380.126 1498.08 364.148 1490.53 353.305 1505.92C345.681 1498.2 362.312 1494.72 360.413 1487.79C355.403 1487.1 350.884 1477.14 346.359 1471.18C350.348 1463.29 352.738 1460.96 359.504 1458.34C347.354 1444.66 341.249 1483.36 329.18 1468.8C328.532 1475.82 333.611 1483.64 330.817 1490.36C333.748 1497.88 337.657 1490.86 340.838 1491.75C337.016 1493.88 337.527 1523.73 323.304 1512.87C328.327 1505.57 332.136 1511.43 332.865 1503.53C326.348 1499.52 319.414 1507.89 321.313 1514.82C317.497 1512.95 319.576 1506.13 310.519 1498.21C314.167 1505.83 310.339 1511.96 312.157 1519.77C304.295 1510.68 294.735 1520.02 286.226 1517.95C284.627 1523.51 293.528 1529.19 288.268 1535.12C303.138 1538.96 318.755 1522.91 329.336 1522.15C332.828 1527.52 330.593 1532.1 336.55 1538.26C341.872 1543.44 358.204 1527.48 358.845 1524.46C369.501 1526.83 361.771 1535.98 359.3 1539.19C364.46 1546.13 371.4 1533.76 376.074 1545.96C369.315 1544.58 360.856 1561.62 353.779 1559.75C352.273 1556.43 357.29 1553.13 359.761 1549.92C352.447 1546.68 353.312 1553.02 346.621 1558.76C341.38 1552.7 334.845 1560.69 330.251 1547.61C332.797 1547.51 335.025 1546.93 337.415 1544.6C329.958 1531.12 319.907 1549.73 320.641 1537.83C319.595 1545.24 311.709 1552.15 313.527 1559.95C317.012 1569.32 323 1555.49 326.722 1566.23C322.732 1574.12 311.585 1581.01 314.038 1589.8C309.345 1589.59 302.193 1584.6 302.84 1577.58C291.444 1591.11 291.898 1605.84 273.026 1617.89C267.474 1607.34 268.24 1626.56 266.59 1613C250.078 1642.7 242.36 1643.86 222.368 1660.19C222.293 1657.07 221.82 1654.34 219.915 1651.41C213.797 1647.01 212.266 1659.68 208.363 1662.7C212.577 1664.17 216.716 1662.52 220.376 1662.14C215.67 1669.93 215.577 1678.81 211.27 1686.21C207.772 1684.84 204.753 1682.19 201.659 1676.43C193.138 1682.36 193.138 1682.36 186.522 1691.22C180.161 1689.45 177.696 1688.67 175.324 1679.01C171.422 1682.02 173.246 1685.83 169.343 1688.84C176.57 1696.95 161.457 1695.75 169.393 1707.96C158.021 1705.49 164.688 1715.75 154.661 1718.36C146.084 1709.17 137.805 1712.47 133.442 1704.75C138.222 1700.08 145.386 1697.08 138.558 1688.58C147.552 1685.38 150.546 1704.01 163.356 1702.68C163.928 1692.54 162.988 1683.07 159.266 1672.34C168.023 1667.77 168.123 1654.9 180.839 1662.44C185.706 1652.89 179.98 1652.1 178.797 1645.27C190.262 1638.86 176.345 1636.49 179.93 1632.98C192.565 1641.4 199.835 1621.52 209.122 1634.81C215.489 1632.58 216.703 1619.42 210.254 1622.52C206.843 1616.27 215.663 1622.83 217.823 1615.13C219.641 1622.93 218.514 1631.22 213.889 1638.13C226.301 1637.19 233.16 1625.7 231.828 1612.62C223.948 1615.53 221.246 1613.38 222.217 1602.85C217.848 1599.13 212.34 1611.7 208.617 1600.96C222.41 1581.1 245.104 1618.02 264.144 1600.22C264.312 1594.46 265.912 1588.91 262.102 1583.05C253.755 1579.22 254.845 1594.93 246.965 1597.83C244.743 1594.42 242.919 1590.61 240.529 1592.94C249.61 1584.87 256.152 1572.89 270.804 1563.37C273.741 1566.88 271.351 1569.22 273.256 1572.15C281.229 1560.37 287.26 1569.65 294.424 1566.64C292.532 1555.71 307.24 1561.3 311.958 1545.52C308.304 1541.9 303.195 1554.08 300.35 1541.69C298.993 1544.61 293.74 1546.55 291.984 1549.86C289.849 1541.56 279.592 1538.81 273.61 1548.65C267.492 1544.24 288.554 1504.5 270.336 1505.53C274.942 1510.61 272.222 1520.46 262.767 1512.93C266.489 1523.66 264.89 1529.22 256.431 1546.26C251.744 1542.06 257.794 1539.34 255.97 1535.54C254.626 1530.46 244.269 1540.58 248.402 1542.93C243.149 1544.87 237.983 1541.93 233.619 1534.22C241.991 1522.04 254.582 1507.35 261.896 1510.58C265.008 1504.35 254.122 1496.62 251.825 1490.08C261.858 1483.47 270.702 1474.03 274.524 1471.89C279.616 1471.71 284.215 1480.79 289.711 1476.22C295.774 1465.51 304.301 1455.58 299.626 1443.38C308.465 1437.94 316.507 1433.27 325.183 1429.59C325.015 1435.34 326.602 1437.78 331.215 1438.87C334.719 1436.24 336.331 1422.69 342.767 1427.58C345.474 1425.73 344.696 1414.52 340.314 1418.8C337.22 1413.04 347.646 1410.04 350.279 1405.07C345.972 1412.47 354.537 1429.66 344.752 1429.63C348.319 1438.13 353.099 1433.46 352.371 1441.35C353.012 1438.33 354.051 1434.92 356.354 1437.46C360.419 1432.69 350.248 1425.06 357.891 1420.79C362.796 1438.35 371.752 1408.04 376.657 1425.61C380.572 1414.6 385.334 1421.92 393.382 1413.26C390.656 1427.11 403.708 1423.14 411.022 1426.37C400.31 1408.89 385.378 1393.93 370.228 1416.72C368.491 1408.04 378.923 1401.04 386.174 1393.16C390.382 1398.63 394.994 1399.71 399.774 1395.04C396.519 1391.03 392.479 1379.81 403.708 1372.03C400.925 1370.76 397.739 1373.87 395.28 1369.09C395.274 1373.09 386.504 1385.65 382.134 1381.93C383.84 1359.5 412.017 1348.74 423.557 1345.45C425.474 1340.39 421.745 1333.65 421.515 1328.28C424.539 1326.93 426.917 1332.59 429.538 1335.62C438.388 1322.18 452.001 1316.07 452.187 1298.32L458.219 1307.6C469.684 1301.19 463.572 1292.79 472.173 1285.98C471.925 1292.61 474.072 1292.91 479.331 1286.97C478.603 1294.87 477.016 1292.43 483.371 1298.19C480.184 1301.31 475.566 1304.22 477.39 1308.03C488.525 1309.13 498.44 1276.29 509.245 1284.89C510.521 1282.85 509.65 1280.51 511.641 1278.56C506.095 1264.02 480.364 1287.56 485.306 1281.13C493.037 1271.98 497.089 1275.21 500.444 1266.34C511.716 1281.68 525.496 1269.81 539.196 1258.83C540.154 1256.29 541.511 1253.37 540.005 1250.05C536.19 1248.19 531.808 1252.47 527.27 1254.51C526.231 1257.92 528.77 1261.83 524.868 1264.84L518.836 1255.56C522.079 1267.56 511.511 1260.32 512.855 1265.4C502.604 1258.64 522.185 1250.69 523.953 1239.38C523.629 1242.89 525.453 1246.7 527.992 1250.61C528.721 1242.71 526.729 1244.66 533.974 1240.77C530.805 1231.89 525.695 1244.07 522.371 1232.94C525.72 1228.07 528.502 1229.35 531.527 1227.99C524.313 1211.88 520.697 1235.38 515.531 1232.44C517.217 1222.01 522.483 1212.07 523.454 1201.54C516.999 1208.65 518.618 1191.09 512.661 1184.94C520.148 1178.42 527.064 1182.04 533.425 1183.81C539.879 1176.71 529.298 1177.47 532.964 1173.09C529.149 1171.22 525.009 1172.87 520.229 1177.54C520.553 1174.03 518.729 1170.22 516.19 1166.32C519.134 1165.84 522.078 1165.36 524.624 1165.26C522.084 1161.36 518.113 1157.25 520.584 1154.04C525.769 1144.98 534.651 1162.65 525.022 1164.87C529.398 1164.59 534.091 1164.8 538.224 1167.15C538.074 1160.91 529.435 1140.6 534.545 1128.42C521.337 1130.15 513.588 1151.29 494.716 1163.34C494.093 1154.37 505.16 1148.35 514.247 1136.27C511.322 1124.76 506.212 1136.94 502.645 1128.45C512.922 1119.2 513.158 1120.57 521.766 1109.76C525.177 1116.01 518.567 1120.88 513.388 1125.93C519.27 1128.97 532.74 1112.62 530.922 1104.81C536.567 1106.48 536.082 1111.75 543.707 1119.47C530.816 1121.68 541.535 1135.17 548.929 1137.53C547.012 1142.59 545.014 1148.54 550.971 1154.69C547.946 1156.05 545.245 1153.9 542.22 1155.26C540.06 1162.96 542.593 1170.86 541.865 1178.76C547.51 1180.43 548.649 1164.15 553.828 1159.09C559.953 1159.49 555.882 1168.26 563.438 1168.87C567.901 1163.71 566.557 1158.63 572.999 1159.52C564.254 1156.09 555.602 1143.78 547.746 1130.7C560.077 1130.63 552.994 1132.76 559.299 1119.41C560.574 1117.36 560.444 1150.23 578.115 1143.35C577.89 1133.98 570.091 1136.01 568.043 1122.84C577.747 1123.74 579.901 1120.04 587.625 1114.89C591.291 1110.51 580.71 1111.27 583.586 1103.67C592.256 1103.98 590.414 1112.17 599.955 1114.82C595.499 1115.98 589.598 1124.94 585.951 1117.33C583.555 1123.66 581.556 1129.6 578.843 1135.45C594.186 1142.02 597.422 1106.92 608.707 1114.26C611.657 1109.78 604.269 1103.42 611.831 1100.03C604.698 1083.04 595.219 1091.5 587.034 1085.92C581.301 1089.13 589.548 1105.83 578.656 1102.09C575.388 1106.09 582.54 1111.08 580.704 1115.27C569.494 1111.05 572.108 1118.07 559.94 1116.39C555.109 1101.94 573.546 1114.27 573.085 1103.54C567.533 1093 560.195 1105.76 553.908 1107.11C550.105 1097.25 545.406 1101.04 541.123 1092.45C547.422 1083.1 551.705 1091.69 557.12 1088C558.396 1085.96 557.524 1083.61 559.516 1081.67C551.798 1082.82 553.229 1083.02 547.907 1077.84C540.656 1085.72 537.071 1089.22 535.223 1101.41C530.53 1101.2 527.125 1090.95 522.027 1095.14C530.368 1102.96 512.71 1101.84 515.996 1085.86C516.475 1084.59 521.006 1086.55 521.566 1084.41C522.214 1077.39 518.896 1062.26 527.093 1059.84C522.804 1055.25 516.898 1068.21 512.361 1070.24C506.248 1061.84 513.319 1067.71 516.35 1062.35C510.537 1066.44 505.464 1054.62 499.171 1059.97C495.499 1068.35 511.981 1058.64 508.782 1069.75C488.323 1079.36 497.043 1098.78 487.308 1117.88C494.398 1111.75 503.572 1094.8 515.585 1094.24C516.768 1101.07 518.747 1107.12 515.635 1113.36C504.338 1114.02 500.653 1130.39 488.485 1128.71C486.412 1131.53 490.701 1136.12 492.525 1139.93C485.442 1142.06 478.502 1154.43 476.933 1139.99C466.01 1156.25 488.124 1156.21 483.014 1168.39C485.317 1170.93 489.065 1165.67 492.17 1163.43C493.832 1169 491.119 1174.84 487.054 1179.61C481.975 1171.8 471.655 1157.92 460.669 1163.07C458.597 1165.89 461.933 1169.02 463.122 1171.85C458.665 1173.01 454.7 1164.91 449.117 1174.35C450.493 1159.44 430.83 1168.26 429.94 1177.92C433.046 1175.68 437.179 1178.03 444.667 1171.52C446.086 1179.71 440.03 1186.43 444.312 1195.02C440.808 1197.64 437.391 1195.39 434.297 1189.63C425.21 1201.7 415.015 1210.07 402.031 1221.16C400.288 1216.47 406.737 1213.36 399.983 1207.98C393.591 1226.21 387.772 1234.29 369.765 1252.68C376.755 1259.42 374.863 1248.5 382.904 1243.83C388.226 1249.02 382.494 1252.22 384.952 1257.01L390.529 1251.56C392.036 1254.88 387.019 1258.18 384.548 1261.39C381.46 1251.63 376.68 1256.3 372.535 1261.95C366.97 1259.4 368.887 1254.34 361.337 1249.73C358.306 1255.09 368.24 1261.36 358.935 1260.07C362.028 1265.83 365.047 1268.47 368.95 1265.45C364.96 1273.34 349.841 1276.14 340.269 1293.47C339.963 1284.99 351.111 1278.09 342.615 1268.03C339.278 1264.9 325.735 1278.13 327.478 1282.81C320.469 1288.06 325.99 1267.5 317.867 1273.04C314.276 1280.54 324.782 1276.66 321.907 1284.26C300.19 1283.92 303.652 1309.29 287.194 1303.01C289.174 1309.06 275.088 1312.44 282.078 1319.18C277.055 1326.49 273.962 1320.73 268.939 1328.03C264.295 1295.83 254.206 1338.43 240.152 1321.82C244.77 1318.9 245.809 1315.49 242.554 1311.49C283.086 1284.66 319.448 1228.38 357.341 1210.52C360.914 1215.01 351.203 1218.11 349.367 1222.3C357.72 1222.13 357.235 1227.39 362.968 1224.19C354.384 1219 367.05 1207.42 363.727 1196.29C375.578 1197.49 377.818 1188.92 384.03 1184.44C387.285 1188.45 384.814 1191.66 388.07 1195.67C391.25 1196.55 403.107 1193.75 401.209 1186.82C398.19 1184.18 399.454 1190.14 395.632 1192.27C392.545 1182.51 400.194 1174.24 396.391 1164.38C409.587 1170.65 406.53 1140.9 417.964 1154.48C412.705 1160.42 404.663 1165.08 404.414 1171.71C420.952 1177.12 418.531 1148.34 419.501 1137.81C417.198 1135.27 414.647 1139.36 412.338 1140.82C412.368 1120.82 432.261 1117.36 441.423 1108.41C439.917 1105.09 438.167 1104.4 436.257 1105.47C432.684 1100.98 442.394 1097.88 444.23 1093.69C444.703 1096.42 444.778 1099.54 446.682 1102.47C455.284 1095.66 464.614 1080.96 472.967 1080.78C465.492 1079.3 458.172 1080.07 449.807 1088.24C451.257 1076.44 452.221 1069.91 441.727 1065.79C457.412 1056.85 446.296 1043.76 455.221 1033.44C459.192 1037.55 458.153 1040.96 459.261 1044.67C468.13 1019.23 434.444 1042.56 429.297 1027.63C419.817 1036.09 426.801 1046.83 416.208 1055.59C412.797 1049.34 408.259 1051.38 404.605 1047.76C397.995 1052.62 404.823 1061.12 396.632 1059.54C406.142 1031.09 417.191 1037.06 426.851 1014.85C414.278 1017.55 428.226 999.928 420.364 990.84C429.52 985.887 429.738 999.249 425.991 1004.51C441.334 1011.08 441.117 997.714 452.731 997.546C453.378 990.526 446.867 982.513 447.515 975.493C456.515 968.297 458.749 963.718 455.892 959.323C460.84 948.899 462.957 969.19 467.905 958.766C472.212 951.364 461.948 952.608 460.286 947.045C466.025 939.841 469.897 956.82 476.283 942.596C478.436 938.895 473.581 940.444 471.839 935.758C478.766 931.386 484.891 931.79 491.009 936.193C485.849 929.257 485.152 917.162 477.764 910.805C472.168 928.25 464.363 934.278 443.506 944.275C445.161 953.837 447.931 963.108 447.595 974.616C447.353 977.248 447.427 980.369 447.185 983.002C438.272 985.322 436.598 987.756 430.865 990.961L424.834 981.682C433.672 976.241 433.672 976.241 439.971 966.893C436.248 956.157 430.173 974.868 426.775 960.621C424.845 973.685 409.559 982.232 405.252 989.634C406.067 976.86 414.358 965.566 412.31 952.395C415.733 950.648 413.418 956.104 416.754 959.232C420.42 954.852 416.928 949.48 413.119 943.62C424.503 938.087 430.466 940.246 437.867 938.605C435.806 933.432 440.026 930.906 432.24 924.939C442.41 932.569 444.501 917.75 456.526 909.196C445.87 906.831 447.775 909.761 452.487 897.971C449.549 894.453 446.107 908.196 439.341 910.814C437.356 908.761 451.229 888.02 434.125 888.761C438.507 884.48 442.241 887.219 447.264 879.916C450.352 889.676 462.726 912.721 473.649 896.46C459.651 894.964 461.331 888.531 452.841 874.468C460.889 865.807 456.171 881.595 462.856 879.855C466.522 875.475 463.03 870.103 459.221 864.242C466.715 853.727 471.949 863.784 478.392 864.677C480.925 872.582 470.68 861.831 467.244 871.575C476.207 888.371 479.991 859.121 488.002 874.452C483.402 865.371 492.085 857.686 500.687 850.879C491.724 834.084 482.319 845.668 492.613 824.431C489.439 819.548 485.53 826.56 482.598 819.044C491.586 819.845 497.711 820.249 499.323 806.697C501.14 814.503 510.944 802.53 520.896 796.799C525.179 805.391 512.282 811.603 506.942 818.418C503.674 822.409 510.826 827.399 508.989 831.589C515.195 831.115 522.434 831.23 518.6 841.364C525.752 846.354 523.387 832.695 530.152 830.077C527.37 828.803 524.183 831.916 521.725 827.132C530.333 816.326 528.173 824.026 533.738 826.574C540.833 816.448 535.443 804.147 543.652 793.731C532.853 781.125 529.473 805.986 519.714 789.969C528.95 784.139 526.492 779.355 540.826 769.343C543.602 774.615 538.504 778.797 541.281 784.07C549.148 789.16 557.855 765.481 546.397 767.893C557.314 755.63 562.1 746.961 565.468 730.096C572.775 737.33 569.986 740.055 581.059 730.035C570.322 728.548 583.555 710.828 595.014 708.417C586.194 701.862 580.144 704.579 579.372 689.363C582.72 684.494 585.503 685.768 588.528 684.41C584.401 678.061 582.166 682.64 582.496 675.131C584.805 673.673 586.866 678.847 589.654 676.123C588.795 665.783 584.905 660.8 591.596 655.061C588.185 648.812 584.693 643.44 580.398 642.845C579.122 644.89 579.994 647.232 578.002 649.178C573.539 654.337 583.33 650.361 584.034 658.457C577.349 660.197 574.965 658.534 570.894 667.302C580.118 669.469 574.61 682.037 568.498 673.636C564.906 681.137 575.413 677.26 572.537 684.86C565.199 697.62 560.132 681.808 553.771 680.038C544.603 692.988 537.296 685.754 523.042 694.888C518.841 685.419 529.584 682.908 534.594 683.602C535.241 676.582 530.878 668.867 532.957 662.045C530.094 661.648 527.15 662.129 524.206 662.61C523.577 657.634 525.811 653.056 530.591 648.386C534.718 654.735 536.953 650.156 536.623 657.665C539.492 654.063 538.465 649.477 534.575 644.494C541.179 643.631 542.604 647.828 540.606 653.773C543.382 659.046 548.013 648.134 551.754 646.875C546.027 646.081 541.272 634.757 536.112 627.821C542.081 625.981 547.322 632.04 553.291 630.201C553.31 618.205 573.053 608.498 579.121 593.786C585.725 592.923 580.54 601.981 585.557 598.677C589.148 591.176 578.642 595.053 581.518 587.452C586.939 579.76 591.066 586.109 595.522 584.949C597.278 581.637 595.852 577.44 597.925 574.616C589.982 566.406 590.593 583.377 583.198 581.019C578.598 571.938 596.188 565.932 592.304 556.951C597.557 555.013 602.157 564.094 607.087 565.665C600.576 557.653 600.993 545.268 615.01 534.768C616.833 538.575 611.499 541.392 609.028 544.604C619.367 546.481 620.587 529.319 616.143 522.482C629.213 506.517 635.095 509.555 644.829 490.462C640.864 482.358 635.362 490.928 631.64 480.191C645.259 470.08 632.069 459.809 638.698 442.952C646.105 437.313 647.605 444.631 651.837 434.108C648.352 424.737 643.242 436.916 639.824 434.665C633.469 428.896 641.43 425.111 639.37 419.938C644.455 423.753 649.87 420.059 654.153 428.652C657.252 430.414 658.696 422.616 665.3 421.753C660.458 415.305 654.233 427.774 650.113 417.427C656.648 409.445 662.698 406.728 667.703 411.421C671.039 414.549 668.966 417.373 666.894 420.196C670.784 425.179 675.495 413.389 680.033 411.352C697.972 436.945 701.749 360.591 727.486 384.154C737.451 370.426 745.879 373.372 754.63 372.807C755.906 370.762 755.035 368.419 757.026 366.473C754.095 358.957 748.817 376.89 746.283 368.984C740.731 358.438 751.462 363.924 752.669 354.76C763.624 369.609 775.88 366.419 789.026 353.576C783.473 343.03 776.54 351.401 770.664 344.366C778.475 334.339 785.471 337.086 793.363 326.181C802.177 336.735 812.771 327.982 822.555 328.004C824.136 334.445 829.85 343.235 827.05 353.957C845.355 348.05 863.747 337.267 878.486 322.868C876.078 337.199 884.524 328.148 891.676 333.138C894.309 328.171 898.691 323.889 898.062 318.914C884.848 324.637 861.569 305.859 856.994 331.888C851.212 315.977 849.5 342.403 841.807 327.561C845.156 322.692 847.938 323.967 850.963 322.609C839.429 321.899 828.3 316.802 818.142 301.174C825.312 294.169 831.437 294.573 837.319 297.61C840.269 293.131 836.46 287.27 843.705 283.386C838.981 303.173 860.174 281.669 866.511 299.433C877.664 288.536 887.767 289.047 894.787 275.8C898.198 282.049 895.964 286.628 902.811 283.133C903.072 268.504 888.893 280.76 887.169 264.079C898.708 260.789 910.827 243.36 921.072 254.112C935.363 220.986 959.581 198.123 984.522 222.465C996.385 215.666 985.025 205.205 990.048 197.902C981.303 194.468 976.287 197.772 970.872 201.466C970.573 188.981 990.627 183.762 997.561 175.39C983.973 165.509 983.587 157.901 975.888 147.057C986.786 146.79 1001.57 155.504 1015.06 174.26C1011.09 174.154 1007.35 171.414 1003.05 174.818C1002.16 184.471 1011.32 179.518 1016.24 185.089C1018.03 161.784 1037.65 180.945 1049.37 163.905C1037.58 169.827 1031.24 156.06 1023.44 162.089C1022.49 156.625 1021.62 150.284 1028.55 145.911C1020.85 135.068 1013.15 124.225 1004.16 127.422C1006.34 103.728 1029.07 116.655 1038.52 132.183C1052.83 138.166 1068.99 127.963 1082.08 151.107C1081.7 139.5 1078.67 144.857 1088.06 141.271C1089.34 139.225 1088.47 136.883 1090.46 134.937C1078.53 130.618 1076.27 104.086 1058.45 104.727C1057.67 93.5097 1067.13 97.0421 1075.17 92.3794C1074.35 109.152 1088.05 94.1648 1086.37 104.596C1089.94 109.091 1095.05 96.9123 1099.1 100.14C1103.4 96.7367 1103.81 92.3487 1100.24 87.8541C1108.22 68.0747 1135.66 69.211 1151.67 56.7647C1155.97 53.3612 1160.36 45.0815 1166.81 41.9757C1179.23 37.0306 1182.96 43.7686 1198.72 33.955C1222.93 19.0894 1247.28 10.4661 1268.52 12.0758C1273.94 8.38222 1269.65 3.78837 1276.49 0.293315C1350.95 2.61148 1419.9 13.4992 1480.41 84.5415C1483.99 81.0388 1478.67 75.8582 1484.8 72.2639C1488.3 73.6373 1491.32 76.2775 1494.41 82.0388C1510.51 60.7178 1522.95 94.8805 1533.59 109.242C1552.41 133.179 1585.69 165.343 1577.36 200.628C1587.14 204.65 1588.48 213.723 1597.76 227.008L1590.19 234.403C1632.25 250.007 1616.25 309.558 1636.01 342.958C1637.59 349.399 1636.62 355.931 1628.9 361.082C1654.34 419.267 1615.37 468.525 1629.36 525.123C1636.99 528.847 1638.37 513.928 1644.5 510.334C1653.86 526.74 1639.93 532.365 1631.41 538.294C1635.92 552.251 1621.11 563.529 1629.52 578.471C1601.04 627.851 1609.85 693.507 1572 734.478C1574.29 745.016 1562.67 753.181 1562.49 762.934C1540.68 771.465 1539.13 800.135 1530.27 813.573C1515.69 834.215 1502.47 843.936 1479.29 859.389C1468.86 866.387 1458.25 883.138 1455.05 898.247C1450.11 900.674 1445.9 899.2 1441.05 900.75C1420.53 946.345 1393.42 984.805 1352.65 1014.26C1349.46 1021.37 1344.99 1026.53 1345.54 1032.38ZM631.741 518.422C626.4 525.236 621.165 515.179 620.593 525.32C626.145 535.866 631.492 525.053 631.741 518.422ZM652.959 532.027C647.065 536.988 642.285 541.658 647.843 548.205C656.202 544.03 654.939 538.079 652.959 532.027ZM556.634 680.435L564.203 673.04L559.759 666.203C552.196 669.599 556.006 675.459 556.634 680.435ZM651.889 606.535C656.097 612.007 660.224 618.355 665.085 612.808C662.863 609.389 662.39 606.657 662.633 604.024C658.892 605.284 655.313 604.788 651.889 606.535ZM616.455 629.177C627.366 620.913 621.621 632.115 622.486 638.456C624.802 633 636.36 617.715 631.188 618.776C623.538 627.048 621.715 623.24 619.58 614.945C617.109 618.158 611.774 620.974 613.598 624.782C621.565 616.998 614.949 625.858 616.455 629.177ZM612.926 647.796C612.217 643.699 617.656 624.011 609.291 632.184C615.011 636.976 601.15 649.72 612.926 647.796ZM603.36 661.135C596.911 664.241 595.156 667.553 596.924 656.244C594.135 658.968 591.907 659.548 589.76 659.251C595.48 664.043 589.349 667.637 591.808 672.422C595.001 665.31 605.731 670.796 603.36 661.135ZM647.228 637.44C651.616 629.161 654.548 636.677 657.971 634.93C656.16 623.125 652.655 625.75 645.186 620.271C646.381 619.103 645.908 616.372 643.599 617.829C642.392 626.994 646.768 626.711 647.228 637.44ZM595.493 707.15C599.078 703.647 598.206 701.305 594.31 700.32C598.773 695.162 598.225 689.309 599.426 684.143C591.939 690.659 591.211 698.557 595.493 707.15ZM659.609 656.487C649.04 649.245 649.774 637.349 638.39 642.881C640.612 646.3 641.085 649.032 640.842 651.665C646.257 647.971 650.061 657.83 659.609 656.487ZM580.001 745.442C582.708 743.595 584.7 741.649 587.159 746.434C593.688 742.45 591.566 726.158 583.53 726.822C586.779 734.827 584.464 740.283 577.549 736.659C579.453 739.589 579.926 742.321 580.001 745.442ZM568.089 784.23C570.012 775.164 550.94 761.857 552.901 779.904C558.074 778.843 562.761 783.047 568.089 784.23ZM543.441 827.475C551.732 816.181 563.19 813.769 559.387 803.91C554.682 811.702 551.675 801.064 546.652 808.367C558.958 824.292 535.511 811.267 538.275 824.537C541.86 821.034 543.528 822.598 543.441 827.475ZM503.613 862.394C499.231 866.675 495.496 863.936 490.473 871.239C492.844 880.9 505.835 865.813 503.613 862.394ZM564.716 856.197C567.424 854.35 569.415 852.404 571.874 857.189C573.791 852.122 580.799 846.872 580.251 841.019C576.349 844.033 563.695 847.612 564.716 856.197ZM557.091 848.475C569.826 844.018 551.52 849.925 554.695 854.808C559.861 857.746 573.492 839.638 564.66 841.08C565.612 842.545 566.166 844.4 564.255 845.468C563.234 836.883 553.12 844.369 557.091 848.475ZM532.4 868.606C535.412 875.244 539.159 869.987 542.01 878.381C549.579 870.986 539.576 857.602 532.4 868.606ZM534.846 881.387C535.798 882.852 536.352 884.707 534.442 885.775C530.477 877.671 523.549 882.044 527.277 888.782C529.188 887.713 530.863 885.279 532.848 887.332C531.572 889.377 531.728 891.62 534.031 894.161C538.251 891.635 539.464 878.472 534.846 881.387ZM520.587 945.624C520.599 937.627 521.645 930.217 524.521 922.617C521.732 925.341 519.504 925.921 517.356 925.624C522.199 932.072 510.404 945.991 520.587 945.624ZM478.967 1058.95C476.826 1054.66 475.095 1041.97 466.904 1040.39C468.23 1057.46 452.246 1053.92 457.394 1068.85C461.533 1067.2 466.643 1055.02 470.533 1060C465.436 1064.19 461.054 1068.47 464.147 1074.23C472.668 1068.3 470.203 1067.51 478.967 1058.95ZM488.123 1054C494.104 1044.16 480.131 1026.67 494.459 1020.66C482.919 1023.95 475.387 1007.35 460.91 1007.12C472.182 1022.46 477.603 1014.77 486.168 1031.95C479.408 1030.57 478.201 1039.74 479.782 1046.18C489.66 1037.33 478.892 1055.83 488.123 1054ZM435.299 1159.11L440.876 1153.66C435.392 1150.23 430.232 1143.3 424.101 1146.89C428.938 1157.34 439.693 1146.83 435.299 1159.11ZM425.334 1172.84C430.432 1168.65 434.813 1164.37 431.72 1158.61C424.562 1157.62 421.606 1166.1 425.334 1172.84ZM379.524 1217.59C375.472 1214.36 372.378 1208.6 367.922 1209.76C369.827 1212.69 366.005 1214.83 367.113 1218.54C372.055 1212.11 374.819 1225.38 379.524 1217.59ZM454.021 1140.82C458.957 1138.39 462.038 1152.15 467.621 1142.7C465.331 1132.16 452.845 1129.99 454.021 1140.82ZM435.66 1131.61C433.65 1145.55 458.727 1133.03 453.971 1121.7C447.598 1127.93 441.063 1135.91 435.66 1131.61ZM433.207 1122.82C427.718 1123.4 423.97 1128.65 423.647 1132.16C425.558 1131.1 427.307 1131.78 428.813 1135.1C433.512 1131.31 435.349 1127.12 433.207 1122.82ZM573.096 993.339C566.33 995.957 568.129 1015.76 558.42 1018.86C568.596 1022.49 574.671 1003.78 573.096 993.339ZM876.663 731.891C871.403 737.827 862.247 742.78 866.692 749.617C871.235 743.581 880.391 738.629 876.663 731.891ZM636.659 1043.03C636.647 1051.03 641.109 1045.87 640.699 1054.25C643.487 1051.53 645.715 1050.95 647.863 1051.25C636.665 1039.03 647.315 1045.4 637.791 1030.74C634.132 1031.13 630.708 1032.87 626.644 1037.64C632.202 1044.19 624.161 1048.85 631.866 1055.7C638.395 1051.71 632.675 1046.92 636.659 1043.03ZM645.043 1022.86C656.427 1017.33 649.176 1025.21 656.24 1035.08C659.508 1031.09 662.209 1033.24 665.396 1030.13C653.95 1024.54 667.077 1023.69 661.761 1014.51C657.298 1019.67 652.761 1021.71 649.748 1015.07C655.076 1016.25 658.985 1009.24 657.721 1003.29C652.064 1009.61 640.679 1015.15 645.043 1022.86ZM623.419 1013.64C607.037 1010.49 605.811 1031.65 608.332 1047.55C612.944 1048.63 619.717 1042.02 616.306 1035.77C613.598 1037.61 611.606 1039.56 609.148 1034.77C611.718 1018.69 621.098 1023.1 625.144 1030.32C621.496 1022.71 639.621 1030.55 636.696 1019.04C630.957 1026.24 622.529 1023.3 623.419 1013.64ZM598.716 1041.77L591.147 1049.17C594.241 1054.93 597.259 1057.57 601.162 1054.55C599.338 1050.75 599.743 1046.36 598.716 1041.77ZM669.173 953.771C680.645 943.362 666.603 969.857 673.213 964.996C674.576 958.075 684.466 941.225 675.559 939.547C681.111 950.093 666.802 944.11 669.173 953.771ZM593.65 1077.06C584.431 1070.9 595.255 1067.51 593.195 1062.34C587.139 1069.05 582.856 1060.46 577.603 1062.4C571.092 1054.39 588.919 1049.75 586.304 1042.72C571.982 1044.73 575.549 1053.23 566.779 1065.79C567.75 1055.26 559.304 1064.31 554.766 1066.34C557.935 1075.23 563.045 1063.05 566.369 1074.17C569.475 1071.94 572.904 1066.19 575.524 1069.22C576.863 1078.29 565.018 1073.1 567.551 1081C570.819 1077.01 573.041 1080.43 576.302 1080.44C573.688 1073.41 584.911 1069.63 587.046 1077.93C583.778 1081.92 581.076 1079.77 577.89 1082.88C581.936 1090.11 588.558 1077.25 593.65 1077.06ZM612.366 1062.77C610.934 1062.57 592.143 1073.75 602.401 1076.5C601.143 1066.55 615.447 1076.53 612.366 1062.77ZM623.974 1066.6C617.7 1059.96 625.418 1058.8 627.964 1058.71C620.731 1054.6 625.524 1041.93 618.758 1044.55C619.306 1050.4 615.621 1066.78 623.974 1066.6ZM629.196 1084.66C624.914 1076.06 642.803 1082.54 633.591 1072.38C626.265 1077.14 620.233 1067.86 612.827 1073.5C615.049 1076.92 615.522 1079.65 615.279 1082.28C625.325 1067.68 623.707 1085.23 629.196 1084.66ZM655.531 1082.08C651.461 1090.85 648.529 1083.34 644.789 1084.6C649.233 1091.43 645.087 1097.08 648.417 1104.21C655.588 1097.2 652.737 1088.81 655.531 1082.08ZM712.172 1029.94C714.817 1016.98 714.655 1018.73 722.865 1008.32C717.929 1010.74 713.479 1007.9 708.138 1014.72C714.493 1020.49 706.134 1024.66 712.172 1029.94ZM603.416 1140.19C606.124 1138.34 606.199 1141.46 606.591 1145.07C608.035 1137.27 609.08 1129.86 613.705 1122.95C610.599 1125.18 609.018 1118.74 609.261 1116.11C603.124 1123.7 607.412 1128.3 603.416 1140.19ZM558.789 1191.77C556.486 1189.23 554.743 1184.55 552.353 1186.88C557.351 1195.57 541.374 1188.03 546.372 1196.72C550.349 1196.82 554.084 1199.56 558.789 1191.77ZM540.123 1225.18C543.073 1220.7 547.853 1216.03 543.247 1210.95C542.052 1212.12 540.54 1212.8 539.668 1210.45C534.253 1214.15 538.062 1220.01 540.123 1225.18ZM585.528 1184.81C591.902 1178.59 588.255 1170.97 583.891 1163.26C579.348 1169.29 584.028 1177.5 585.528 1184.81ZM196.985 1664.23C192.379 1659.15 206.701 1657.13 198.118 1651.95C193.972 1657.59 191.277 1651.44 186.97 1658.84C189.908 1662.36 192.927 1665 196.985 1664.23ZM281.099 1593.23C286.439 1586.42 294.786 1590.24 291.064 1579.5C285.891 1580.57 273.797 1582 281.099 1593.23ZM308.391 1485.92C307.208 1479.09 317.497 1461.85 304.762 1466.31C308.721 1478.41 304.27 1475.57 296.788 1478.09C300.199 1484.34 304.009 1490.2 308.391 1485.92ZM582.859 1213.77C580.238 1210.74 577.941 1204.2 574.835 1206.44C576.902 1207.61 562.088 1218.89 570.441 1218.72C572.433 1216.77 571.562 1214.43 572.838 1212.38C575.215 1218.05 578.794 1218.54 582.859 1213.77ZM466.491 1308.3C469.342 1316.69 449.686 1321.52 452.537 1329.92C460.734 1327.5 477.464 1311.15 466.491 1308.3ZM426.706 1366.33C418.826 1369.24 410.94 1376.15 402.419 1382.08C410.841 1389.02 426.37 1377.84 426.706 1366.33ZM416.842 1418.29C428.232 1408.76 417.663 1401.52 417.196 1394.79C411.389 1394.87 404.853 1402.85 398.884 1404.69C403.092 1410.16 407.231 1408.52 406.503 1416.41C411.924 1408.72 417.651 1409.52 416.842 1418.29ZM441.539 1394.16C445.61 1385.39 437.331 1388.69 439.491 1380.99C450.216 1390.48 445.485 1363.16 457.081 1374.99C452.238 1368.54 455.269 1363.18 455.039 1357.82C452.25 1360.54 451.292 1363.07 451.049 1365.71C448.591 1360.92 445.566 1362.28 443.026 1358.37C450.196 1351.37 465.24 1345.45 460.61 1356.37C470.158 1355.02 477.247 1348.89 472.573 1336.69C467.058 1353.26 467.313 1342.63 460.56 1337.25C455.462 1341.43 451.08 1345.71 450.595 1350.98C446.387 1345.51 441.775 1344.42 436.995 1349.09C442.074 1356.91 439.111 1369.38 425.088 1383.88C430.167 1391.7 436.055 1390.74 441.539 1394.16ZM547.998 1328.48C543.455 1334.52 538.276 1339.58 538.027 1346.21C542.322 1346.8 552.76 1335.81 547.998 1328.48ZM575.914 1332.35C580.059 1326.7 582.754 1332.85 587.062 1325.45C582.941 1315.1 571.152 1325.02 575.914 1332.35ZM546.101 1372.66C546.107 1368.66 552.636 1364.67 547.233 1360.37C544.768 1359.58 533.708 1361.61 536.086 1367.27C539.11 1365.91 541.974 1366.31 544.513 1370.21C538.694 1378.3 534.337 1366.58 528.517 1374.66C533.677 1381.6 540.051 1375.37 546.101 1372.66ZM814.389 1187.2C807.779 1192.06 811.588 1197.92 816.431 1204.37C822.008 1198.92 821.547 1188.19 814.389 1187.2ZM747.056 1260.97C742.923 1258.62 738.211 1270.41 735.043 1261.52L731.059 1265.41C732.647 1267.86 731.371 1269.9 732.242 1272.24C736.475 1261.72 747.753 1273.06 747.056 1260.97ZM718.375 1288.99C714.472 1292 717.012 1295.91 715.972 1299.32C713.9 1302.14 710.078 1304.28 711.983 1307.21C714.852 1303.61 725.988 1304.71 723.535 1295.92C719.713 1298.06 718.132 1291.62 718.375 1288.99ZM771.703 1217.72C776.222 1227.68 777.405 1234.51 786.48 1230.43C785.777 1222.34 775.986 1226.31 780.449 1221.15C783.635 1218.04 794.596 1228.89 793.183 1216.7C787.849 1219.51 779.179 1219.2 779.988 1210.43L772.021 1218.21L771.703 1217.72ZM754.574 1234.46C760.214 1240.13 765.766 1250.67 772.214 1247.57C772.55 1236.06 760.699 1234.86 754.574 1234.46ZM739.842 1244.86C741.665 1248.66 739.194 1251.88 740.302 1255.59C744.062 1242.33 747.628 1250.82 754.307 1253.08C753.436 1250.74 753.996 1248.6 756.704 1246.75C751.861 1240.3 746.134 1239.51 739.842 1244.86ZM727.107 1249.31C728.613 1252.63 725.507 1254.87 723.117 1257.2C729.783 1267.46 729.404 1255.85 735.13 1256.65C732.51 1253.62 730.132 1247.96 727.107 1249.31ZM621.931 1360.06C626.966 1344.76 645.888 1351.82 643.049 1335.43C637.23 1343.51 616.621 1346.88 621.931 1360.06ZM566.106 1399.42C575.318 1409.59 595.161 1387.01 591.986 1382.12C586.409 1387.57 576.382 1390.18 566.106 1399.42ZM568.502 1393.09C565.962 1389.18 572.728 1386.57 570.904 1382.76C568.197 1384.61 568.122 1381.48 567.73 1377.87C560.634 1388 552.288 1384.18 554.18 1395.11C559.439 1389.17 563.41 1393.27 568.502 1393.09ZM556.595 1427.88C557.324 1419.98 549.923 1421.62 544.993 1420.05C544.265 1427.95 551.741 1429.43 556.595 1427.88ZM719.993 1271.44C717.204 1274.16 713.14 1278.93 717.597 1277.77C721.499 1274.76 720.391 1271.05 723.578 1267.93C724.53 1269.4 726.758 1268.82 725.57 1265.99C717.609 1269.77 720.889 1257.78 711.97 1264.1C714.428 1268.89 717.13 1271.04 719.993 1271.44ZM698.065 1304.84C708.41 1302.72 711.528 1292.48 708.758 1283.21C699.758 1290.41 690.926 1291.85 698.065 1304.84ZM645.147 1367.72C643.641 1364.4 645.079 1360.6 641.108 1356.49C634.964 1368.08 621.538 1356.45 629.549 1371.78C635.294 1360.57 639.813 1370.53 645.147 1367.72ZM676.598 1348.97C672.472 1342.62 665.481 1335.87 674.556 1331.8L670.112 1324.96C667.324 1327.68 666.365 1330.22 666.123 1332.85C663.82 1330.31 662.232 1327.87 658.965 1331.86C658.156 1340.63 662.618 1335.48 666.988 1339.19C661.809 1344.25 660.465 1339.18 659.419 1346.59C667.362 1354.8 667.218 1344.56 676.598 1348.97ZM844.303 1185.12C842.081 1181.7 841.607 1178.97 841.85 1176.34C837.705 1181.98 835.309 1188.32 834.743 1194.46L844.303 1185.12ZM814.489 1225.43L818.933 1232.26C824.031 1228.08 826.664 1223.12 822.058 1218.03L814.489 1225.43ZM788.26 1262.23C785.074 1265.35 781.806 1269.34 779.509 1262.8C784.607 1258.61 788.989 1254.33 785.895 1248.57C773.789 1258 778.383 1271.08 764.783 1269.2L770.814 1278.48C779.024 1268.06 790.227 1276.28 788.26 1262.23ZM318.838 1675.34C311.86 1660.6 333.097 1662.21 333.514 1649.82C330.807 1651.67 328.983 1647.86 327.078 1644.93C316.061 1670.07 297.134 1667 300.439 1690.12C306.414 1684.28 313.51 1674.16 318.838 1675.34ZM469.57 1581.58C463.594 1587.41 458.653 1593.84 457.607 1601.25C465.973 1593.08 472.097 1593.48 469.57 1581.58ZM439.756 1621.88C442.868 1615.65 449.161 1610.3 446.864 1603.76C441.287 1609.21 435.312 1615.05 439.756 1621.88ZM464.504 1616.87C457.894 1621.73 452.179 1612.94 445.333 1616.43C448.75 1618.69 450.879 1630.98 454.943 1626.21C459.325 1621.93 485.193 1612.63 488.119 1624.14C491.953 1614.01 496.104 1604.36 503.2 1594.23C496.353 1597.73 498.986 1592.76 495.176 1586.9C490.154 1594.2 467.61 1614.63 472.881 1600.7C464.441 1605.75 471.83 1612.11 464.504 1616.87ZM482.709 1572.73C484.931 1576.15 485.404 1578.88 485.161 1581.51C488.186 1580.16 490.969 1581.43 494.317 1576.56C490.906 1570.31 486.767 1571.96 482.709 1572.73ZM715.401 1360.56C718.009 1371.59 722.726 1355.8 725.422 1361.95L728.596 1366.84C725.409 1369.95 722.304 1372.19 719.44 1371.79C722.291 1380.18 734.702 1379.24 733.445 1369.29C723.741 1368.39 736.414 1352.81 737.378 1346.28C726.803 1343.04 724.314 1358.24 715.401 1360.56ZM704.253 1367.46C705.753 1374.78 701.527 1381.31 702.311 1388.52C706.058 1383.27 709.799 1382.01 713.459 1381.63C705.037 1374.68 708.934 1375.67 715.861 1371.29C713.253 1360.27 708.535 1376.06 705.84 1369.91C707.035 1368.74 706.96 1365.62 704.253 1367.46ZM681.143 1394.03C675.41 1397.24 672.466 1397.72 673.17 1405.82C677.309 1404.17 682.419 1391.99 686.309 1396.97C685.114 1398.14 684.236 1399.8 685.904 1401.36C694.263 1397.19 681.23 1389.16 683.863 1384.19C679.643 1386.72 682.182 1390.62 681.143 1394.03ZM652.462 1422.06C642.59 1426.91 642.74 1433.15 638.507 1443.67C642.099 1436.17 659.29 1430.56 652.462 1422.06ZM721.887 1384.57C717.667 1387.1 712.557 1399.28 709.152 1389.03C701.907 1392.91 709.693 1398.88 702.766 1403.25C700.967 1383.45 681.267 1416.27 672.448 1409.72C686.826 1422.82 720.748 1400.86 721.887 1384.57ZM684.828 1428.76C674.315 1436.64 686.185 1425.84 683.645 1421.93C677.676 1423.77 671.944 1426.98 665.334 1431.84C666.759 1436.04 666.354 1440.42 667.381 1445.01C668.514 1432.72 690.866 1434.04 684.828 1428.76ZM761.317 1350.04C759.244 1352.86 755.423 1355 757.327 1357.93C764.006 1360.19 771.655 1351.92 779.622 1344.13C771.83 1342.17 772.645 1329.39 780.755 1331.85C779.56 1333.02 780.033 1335.75 782.342 1334.29C781.39 1332.83 780.836 1330.97 782.747 1329.9L779.572 1325.02C775.433 1326.67 770.323 1338.85 766.433 1333.86C764.136 1327.32 780.848 1322.97 773.541 1315.74C764.391 1316.69 754.595 1324.67 749.248 1335.48C755.379 1331.89 761.833 1324.78 767.559 1325.58C754.725 1342.91 748.277 1346.01 734.484 1365.88C743.385 1371.55 742.681 1363.46 749.267 1374.59C755.087 1366.51 750.35 1343.19 761.317 1350.04ZM700.824 1424.31C693.666 1423.32 695.882 1430.74 689.272 1435.6C693.947 1447.8 704.87 1431.54 700.824 1424.31ZM746.336 1418.18C751.434 1414 753.668 1409.42 752.722 1403.95C747.786 1406.38 737.211 1403.14 741.17 1415.24C743.398 1414.66 745.147 1415.35 746.336 1418.18ZM873.851 1316.75C867.633 1325.22 856.511 1316.13 863.887 1330.48C866.121 1325.9 876.945 1322.51 873.851 1316.75ZM1046.98 1243.42C1036.59 1226.43 1073.18 1230.61 1056.09 1219.36C1058.14 1228.53 1051.16 1217.78 1052.92 1214.47C1048.53 1222.75 1032.98 1245.93 1046.98 1243.42ZM1120.67 1179.42C1121.62 1180.89 1123.85 1180.31 1122.66 1177.48C1113.05 1167.7 1112.31 1179.6 1103.48 1181.04C1101.75 1172.36 1107.17 1164.66 1105.83 1155.59C1101.12 1163.38 1098.12 1152.74 1093.09 1160.05C1088.54 1170.08 1084.77 1191.33 1098.37 1197.22C1101.24 1189.62 1090.34 1193.88 1094.33 1185.99C1101.95 1193.71 1114.55 1175.02 1116.67 1191.31C1123.84 1188.3 1112.39 1182.72 1120.67 1179.42ZM414.95 994.533C417.085 1002.83 420.334 1010.83 414.595 1018.04C413.817 1006.82 411.495 1016.27 407.431 1021.04C406.254 1010.21 401.331 1004.64 395.823 1017.21C391.384 1006.38 413.35 1000.09 414.95 994.533ZM581.019 1426.38C585.084 1421.61 579.208 1414.57 586.136 1410.2C583.409 1424.04 609.277 1414.74 596.207 1430.7C596.53 1427.19 594.707 1423.38 592.167 1419.48C588.333 1429.61 581.256 1427.74 573.046 1438.16C569.237 1432.3 572.735 1433.67 575.442 1431.83C577.117 1429.39 575.05 1428.22 573.855 1429.38C572.666 1426.55 576.488 1424.42 574.664 1420.61C576.893 1420.03 579.034 1424.32 581.019 1426.38ZM1648.18 391.75C1643.03 376.816 1643.62 354.679 1636.88 341.303L1644.45 333.908C1654.54 346.415 1651.66 354.015 1658.56 369.636C1658.15 374.023 1646.76 387.553 1653.44 385.813C1661.79 385.637 1650.97 389.026 1648.18 391.75ZM378.03 793.445C371.264 796.062 361.729 789.408 363.297 803.846C349.623 798.84 371.924 781.044 376.791 771.498C378.379 773.94 375.671 775.787 374.395 777.832C376.138 782.517 372.316 784.654 378.03 793.445ZM387.395 1014.27L375.843 1025.55C374.654 1022.72 378.476 1020.59 376.652 1016.78C375.78 1014.44 374.585 1015.6 373.073 1016.28C368.398 1004.08 380.896 998.258 388.21 1001.49C392.816 1006.58 379.21 1008.69 387.395 1014.27ZM415.2 1090.11C411.372 1096.24 416.532 1103.18 418.829 1109.72C414.055 1110.39 410.488 1101.9 405.639 1099.45C413.681 1094.79 411.31 1085.13 418.785 1086.61C420.291 1089.93 416.787 1092.55 415.2 1090.11ZM374.051 1103.96C369.19 1109.51 364.665 1103.55 360.856 1097.69C343.484 1117.06 324.064 1123.25 308.286 1141.06C300.35 1128.85 329.411 1112.44 336.967 1113.04C337.77 1108.27 336.824 1102.8 336.513 1098.31C342.799 1096.96 350.293 1086.45 356.816 1086.46C358.005 1089.29 353.785 1091.82 356.007 1095.24C359.897 1100.22 358.882 1087.64 365.567 1085.9C368.343 1091.17 368.176 1096.92 374.051 1103.96ZM385.704 1130.91C382.355 1135.77 379.573 1134.5 376.548 1135.86C376.473 1132.74 375.21 1126.78 372.104 1129.02C370.124 1122.97 382.367 1127.78 385.704 1130.91ZM369.39 1134.87C372.564 1139.75 366.116 1142.86 371.438 1148.04C368.892 1148.13 366.664 1148.71 364.273 1151.04C363.881 1147.43 367.068 1144.32 363.813 1140.31C358.093 1135.52 364.192 1151.92 356.244 1147.71C352.123 1137.36 364.535 1136.41 369.39 1134.87ZM318.424 1066.48L312.847 1071.93C308.005 1065.48 312.468 1060.32 307.625 1053.87C315.748 1048.33 308.011 1061.48 318.424 1066.48ZM297.816 1120.95C297.493 1124.46 297.885 1128.07 298.277 1131.68C291.829 1134.78 275.434 1139.62 273.984 1151.42C262.307 1140.47 306.107 1109.65 310.234 1116C305.771 1121.16 301.389 1125.44 297.816 1120.95ZM330.688 1161.5C327.818 1165.1 323.368 1162.26 325.111 1166.95C322.802 1168.4 322.329 1165.67 323.524 1164.51C318.837 1160.3 309.618 1154.13 318.301 1146.45C320.841 1150.36 320.517 1153.87 318.762 1157.18C322.733 1161.28 327.519 1152.62 330.688 1161.5ZM350.265 1310.86C364.593 1304.84 374.552 1295.11 382.531 1279.33C390.785 1292.03 393.119 1274.58 400.843 1269.43C411.493 1275.79 388.563 1288.61 400.893 1288.54C401.609 1288.64 379.868 1304.29 381.716 1292.11C380.011 1314.53 350.726 1321.59 346.326 1337.86C344.987 1328.79 350.091 1320.61 350.265 1310.86ZM412.501 1292.37C414.008 1295.69 410.186 1297.83 408.512 1300.26C403.427 1296.45 408.617 1283.39 402.885 1286.6C401.217 1285.03 402.094 1283.38 403.289 1282.21L407.273 1278.32C413.709 1283.21 402.306 1300.74 412.501 1292.37ZM340.398 1209.5C329.089 1218.16 325.099 1226.05 313.254 1220.85L318.831 1215.4C325.18 1225.17 330.949 1197.97 340.398 1209.5ZM384.629 1311.62C389.97 1304.81 394.42 1307.64 399.356 1305.22C403.893 1303.18 390.897 1322.26 384.629 1311.62ZM504.487 1481.98C500.59 1481 492.928 1497.27 486.953 1503.11C480.592 1501.34 485.048 1500.18 480.922 1493.83C472.127 1522.38 448.811 1527.6 421.157 1560.2C417.186 1556.1 418.225 1552.69 417.117 1548.98C412.256 1554.53 413.601 1559.6 411.547 1550.43C408.764 1549.15 405.739 1550.51 402.795 1550.99C401.121 1553.43 403.187 1554.6 404.382 1553.43C405.571 1556.27 403.343 1556.85 402.391 1555.38L398.407 1559.27C394.598 1553.41 403.754 1548.46 399.944 1542.6C405.279 1539.78 410.93 1537.46 416.669 1530.25C421.985 1539.43 430.045 1522.77 435.84 1530.69C437.595 1527.37 435.547 1514.2 430.213 1517.02C430.866 1506 445.35 1502.23 451.325 1496.39C455.452 1502.74 457.687 1498.16 457.357 1505.67C457.68 1502.16 460.151 1498.95 463.338 1495.84C459.367 1491.73 466.294 1487.36 464.875 1479.16C463.207 1477.6 461.296 1478.67 459.709 1476.22C453.416 1481.57 454.282 1487.91 446.159 1493.45C442.039 1483.11 461.221 1475.54 462.827 1465.99C470.763 1478.2 477.927 1475.19 487.17 1465.36C495.903 1476.8 495.742 1478.55 507.985 1483.36C506.79 1484.53 505.837 1483.06 504.487 1481.98ZM377.061 1319.01C378.567 1322.33 380.316 1323.02 382.227 1321.95C382.14 1326.83 376.245 1331.79 369.087 1330.8C365.515 1326.3 375.225 1323.2 377.061 1319.01ZM267.344 1227.38C240.891 1254.82 221.441 1281.01 178.12 1310.56C175.375 1285.29 202.519 1273.94 214.32 1256.02C215.907 1258.47 213.199 1260.31 211.923 1262.36C243.063 1239.12 262.582 1220.05 286.016 1189.97C292.62 1189.11 287.435 1198.17 292.452 1194.86C296.013 1207.35 282.176 1204.1 280.49 1214.53C279.382 1210.83 281.136 1207.51 280.029 1203.81C266.97 1211.77 270.531 1224.26 260.504 1226.87C262.651 1227.17 265.035 1228.83 267.344 1227.38ZM269.23 1191.2C271.533 1193.74 274.084 1189.65 276.393 1188.19C280.919 1194.15 276.219 1197.94 273.269 1202.42C272.647 1193.45 262.706 1191.18 271.632 1180.87C275.603 1184.97 271.701 1187.99 269.23 1191.2ZM373.13 1495.33C376.876 1490.08 380.617 1488.82 384.277 1488.43C381.626 1505.4 394.852 1491.68 399.919 1507.49C416.326 1494.65 429.708 1483.18 448.909 1463.62C452.476 1472.11 443.159 1478.82 441.796 1485.74C438.08 1471 439.231 1497.83 429.061 1490.2C424.2 1495.74 433.972 1503.76 425.532 1508.82C422.681 1500.42 418.934 1505.68 415.921 1499.04C411.739 1528.68 387.813 1516.92 379.267 1538.84C371.798 1533.37 385.429 1515.26 368.013 1511.51C368.505 1502.25 387.196 1503.95 373.13 1495.33ZM153.618 1104.52C145.209 1089.58 166.689 1088.56 172.739 1085.84C172.092 1092.86 155.305 1094.09 153.618 1104.52ZM206.899 1167.45C201.416 1164.03 199.442 1153.98 198.471 1164.51C191.867 1165.37 200.482 1150.57 205.579 1146.38C210.191 1147.47 216.852 1161.72 206.899 1167.45ZM241.714 1340.25C233.205 1338.19 233.256 1357.3 225.718 1344.7C222.04 1357.08 218.858 1356.2 208.184 1365.83C206.995 1363 210.817 1360.86 208.993 1357.05C205.178 1355.19 201.039 1356.84 196.258 1361.51C194.503 1364.82 194.18 1368.33 196.719 1372.24C199.022 1374.78 204.201 1369.72 202.296 1366.79C206.354 1366.02 204.12 1370.6 210.319 1374.12C197.255 1386.09 191.504 1401.29 176.522 1418.32C178.688 1406.62 179.422 1394.72 167.671 1380.65C200.086 1355.37 208.14 1342.71 237.046 1324.05C241.888 1330.5 239.654 1335.08 241.714 1340.25ZM175.397 1477.71C165.12 1486.95 153.257 1493.75 147.12 1501.34C142.738 1505.62 143.79 1494.22 147.929 1492.57C138.867 1488.65 146.796 1504.85 139.551 1508.74C129.692 1505.59 128.005 1516.03 117.2 1507.42C133.694 1489.71 157.203 1462.75 175.397 1477.71ZM84.5963 1448.24C80.538 1449.01 82.7725 1444.43 76.573 1440.91C79.7598 1437.8 87.478 1436.64 80.5566 1437.02C79.548 1420.44 96.8948 1417.06 100.082 1413.95C106.53 1410.84 99.192 1423.6 102.13 1427.12C94.7231 1432.76 87.397 1437.52 84.5963 1448.24ZM50.749 1473.33C49.6287 1477.61 39.8255 1489.59 43.2303 1499.84C38.2136 1503.14 33.3834 1488.69 34.0244 1485.67C29.8168 1480.2 33.0599 1492.2 26.456 1493.07C29.145 1503.22 33.701 1489.18 36.4709 1498.45C32.4936 1498.35 27.7132 1503.02 23.7359 1502.91C20.1693 1494.42 15.3891 1499.09 16.1172 1491.19C29.406 1488.59 28.3044 1480.88 35.6426 1468.12C34.5038 1484.41 45.8255 1467.76 50.749 1473.33ZM25.9513 1459.22C31.8272 1466.26 24.8188 1471.51 26.0016 1478.34C22.9766 1479.7 20.1379 1463.31 25.9513 1459.22ZM66.5475 1545.73C69.0061 1550.51 61.126 1553.42 65.4146 1558.01C70.7426 1559.2 73.7051 1546.72 81.0063 1557.95C70.0205 1563.09 61.0388 1558.3 55.4496 1571.74C45.1858 1572.99 51.5716 1558.76 50.2271 1553.69C52.5363 1552.23 54.5967 1557.4 57.3851 1554.68C58.9038 1550 50.4822 1543.06 49.7664 1542.96C48.2601 1539.64 53.2768 1536.33 55.7478 1533.12C57.5654 1540.93 62.5763 1541.62 66.5475 1545.73ZM218.008 1908C227.681 1928.89 242.376 1891.38 253.499 1900.48C237.334 1910.68 226.971 1924.8 210.085 1938.9C205.323 1931.57 218.942 1921.46 223.635 1921.67C216.016 1909.95 217.106 1925.65 209.63 1924.17C212.107 1916.96 214.97 1917.36 218.008 1908ZM881.361 213.059C894.413 209.091 907.465 205.122 918.893 222.703C909.663 224.535 910.932 226.489 901.303 228.709C895.602 211.921 881.579 226.421 881.361 213.059ZM390.045 946.199C394.334 950.793 395.361 955.379 395.673 959.866C391.596 972.633 379.122 962.461 374.964 976.105C372.281 961.958 384.693 961.011 390.045 946.199ZM440.98 1034.58C445.188 1040.05 448.68 1045.42 448.194 1050.69C443.974 1053.21 440.165 1047.35 435.459 1055.14C436.505 1047.74 434.289 1040.32 440.98 1034.58ZM392.394 1074.06C381.974 1073.06 380.219 1076.37 370.099 1087.86C367.64 1083.08 364.534 1085.31 362.075 1080.53C365.026 1076.05 369.806 1071.38 365.2 1066.29C373.397 1063.88 383.126 1048.78 390.352 1056.89C397.342 1063.64 384.688 1067.22 392.394 1074.06ZM486.638 1243.1C486.314 1246.61 488.138 1250.42 490.677 1254.33C485.499 1259.38 480.557 1265.81 475.945 1264.73C469.59 1258.96 474.37 1254.29 472.31 1249.11C459.668 1244.7 451.614 1257.36 445.16 1264.46C443.193 1250.41 463.427 1231.44 475.428 1238.88C475.82 1242.49 472.633 1245.6 475.889 1249.61C482.642 1254.99 480.438 1239.57 486.638 1243.1ZM393.79 1613.29C391.406 1611.63 381.87 1604.97 388.219 1614.74C385.275 1615.22 382.735 1611.32 379.467 1615.31C380.364 1601.65 391.742 1600.12 402.578 1588.73C402.809 1594.1 404.395 1596.54 409.014 1593.63C413.85 1604.07 399.852 1602.58 393.79 1613.29ZM130.306 1365.26C115.337 1374.29 111.497 1388.42 94.8655 1391.9C97.7657 1368.3 116.463 1366 131.52 1352.09C135.727 1357.56 121.723 1360.07 130.306 1365.26Z" fill="#C90000"/>
</svg>
