<svg width="128" height="241" viewBox="0 0 128 241" fill="none" xmlns="http://www.w3.org/2000/svg">
<path d="M119.965 16.8791H126.963V0H0V16.8791H6.99863V21.2429C6.99863 48.8258 16.4674 105.803 31.9467 120.788C16.4674 135.856 6.99863 191.022 6.99863 218.604V224.121H0V241H127.046V224.121H120.047V218.604C120.047 191.022 110.578 135.856 95.0991 120.871C110.661 105.885 120.047 48.8258 120.047 21.3253V16.8791H119.965ZM83.1602 116.507L77.3143 120.953L83.1602 125.399C97.7339 136.432 107.45 192.339 108.767 216.875H98.3102H31.8644H18.2788C19.5962 192.339 29.3119 136.432 43.8856 125.399L49.7315 120.953L43.8856 116.507C29.3119 105.474 19.5138 49.4845 18.2788 24.9481H108.849C107.45 49.4845 97.7339 105.474 83.1602 116.507Z" fill="#6C100E"/>
<path d="M79.5369 209.465C75.667 205.595 71.4678 204.195 67.6803 203.784C67.6803 202.549 67.9274 122.105 73.1969 114.695C75.7494 112.143 77.6431 111.319 77.6431 111.319C88.6763 102.921 100.121 58.0473 101.027 39.4392H25.9355C26.9236 58.0473 36.7217 102.015 47.8372 110.414L53.7654 113.789C53.7654 113.789 62.1638 124.823 62.1638 150.512C62.1638 150.512 62.2461 203.866 62.3284 204.031C55.4945 205.183 50.6366 209.465 50.6366 209.465C40.4268 217.205 32.3578 207.489 31.8638 216.793H98.3097C98.3097 209.547 90.7347 220.58 79.5369 209.465Z" fill="#6C100E"/>
</svg>
